<?xml version="1.0" standalone="no"?>
<!DOCTYPE svg PUBLIC "-//W3C//DTD SVG 20010904//EN"
 "http://www.w3.org/TR/2001/REC-SVG-20010904/DTD/svg10.dtd">
<svg version="1.0" xmlns="http://www.w3.org/2000/svg"
 width="100.000000pt" height="100.000000pt" viewBox="0 0 100.000000 100.000000"
 preserveAspectRatio="xMidYMid meet">

<g transform="translate(0.000000,100.000000) scale(0.100000,-0.100000)"
fill="#000000" stroke="none">
<path d="M436 920 c-44 -14 -93 -66 -104 -114 -15 -63 -8 -253 11 -274 21 -24
50 -91 57 -131 7 -45 45 -73 107 -78 62 -5 114 20 127 62 17 57 48 130 63 146
10 12 15 52 19 140 6 167 -8 193 -134 249 -28 12 -105 12 -146 0z"/>
<path d="M366 322 c-3 -5 -36 -20 -73 -35 -111 -44 -173 -109 -173 -182 l0
-25 400 0 400 0 0 24 c0 72 -53 132 -159 177 -42 18 -81 36 -87 40 -5 5 -32
-3 -59 -16 -64 -33 -126 -33 -191 0 -57 29 -51 27 -58 17z"/>
</g>
</svg>
