<svg width="26" height="9" viewBox="0 0 26 9" fill="none" xmlns="http://www.w3.org/2000/svg">
  <g clip-path="url(#clip0_128_3484)">
    <path d="M18 4C18.2761 4 18.5 4.22386 18.5 4.5C18.5 4.77614 18.2761 5 18 5L18 4ZM7.64645 4.85355C7.45118 4.65829 7.45118 4.34171 7.64645 4.14645L10.8284 0.964465C11.0237 0.769203 11.3403 0.769203 11.5355 0.964465C11.7308 1.15973 11.7308 1.47631 11.5355 1.67157L8.70711 4.5L11.5355 7.32843C11.7308 7.52369 11.7308 7.84027 11.5355 8.03553C11.3403 8.2308 11.0237 8.2308 10.8284 8.03553L7.64645 4.85355ZM18 5L8 5L8 4L18 4L18 5Z" fill="white"/>
  </g>
  <defs>
    <clipPath id="clip0_128_3484">
      <rect width="26" height="8" fill="white" transform="translate(0 0.5)"/>
    </clipPath>
  </defs>
</svg>