<svg width="25" height="29" viewBox="0 0 25 29" fill="none" xmlns="http://www.w3.org/2000/svg">
<path d="M4.4668 5.32213L6.0518 6.90713L8.45215 4.50673" stroke="#74767E" stroke-width="1.5" stroke-miterlimit="10"/>
<path d="M8.93918 20.8288H3.98828" stroke="#74767E" stroke-width="1.5" stroke-miterlimit="10"/>
<path d="M15.5461 10.9151H3.98828" stroke="#74767E" stroke-width="1.5" stroke-miterlimit="10"/>
<path d="M15.5461 14.2217L3.98828 14.2207" stroke="#74767E" stroke-width="1.5" stroke-miterlimit="10"/>
<path d="M12.7987 24.1362H1.5V1H13.0681L18.0259 5.95776V15.8733" stroke="#74767E" stroke-width="1.5" stroke-miterlimit="10"/>
<path d="M18.0242 5.95776H13.0664V1" stroke="#74767E" stroke-width="1.5" stroke-miterlimit="10"/>
<path d="M18.0302 27.4417C21.2246 27.4417 23.8142 24.8521 23.8142 21.6576C23.8142 18.4632 21.2246 15.8735 18.0302 15.8735C14.8357 15.8735 12.2461 18.4632 12.2461 21.6576C12.2461 24.8521 14.8357 27.4417 18.0302 27.4417Z" stroke="#09993E" stroke-width="1.5" stroke-miterlimit="10"/>
<path d="M18.0312 24.803V18.5114" stroke="#09993E" stroke-width="1.5" stroke-miterlimit="10"/>
<path d="M14.8789 21.6573H21.1704" stroke="#09993E" stroke-width="1.5" stroke-miterlimit="10"/>
<path d="M11.5176 17.526L3.98828 17.525" stroke="#74767E" stroke-width="1.5" stroke-miterlimit="10"/>
</svg>
