<svg width="26" height="9" viewBox="0 0 26 9" fill="none" xmlns="http://www.w3.org/2000/svg">
<g clip-path="url(#clip0_128_3484)">
<path d="M8 4C7.72386 4 7.5 4.22386 7.5 4.5C7.5 4.77614 7.72386 5 8 5L8 4ZM18.3536 4.85355C18.5488 4.65829 18.5488 4.34171 18.3536 4.14645L15.1716 0.964465C14.9763 0.769203 14.6597 0.769203 14.4645 0.964465C14.2692 1.15973 14.2692 1.47631 14.4645 1.67157L17.2929 4.5L14.4645 7.32843C14.2692 7.52369 14.2692 7.84027 14.4645 8.03553C14.6597 8.2308 14.9763 8.2308 15.1716 8.03553L18.3536 4.85355ZM8 5L18 5L18 4L8 4L8 5Z" fill="white"/>
</g>
<defs>
<clipPath id="clip0_128_3484">
<rect width="26" height="8" fill="white" transform="translate(0 0.5)"/>
</clipPath>
</defs>
</svg>
