<svg width="18" height="17" viewBox="0 0 18 17" fill="none" xmlns="http://www.w3.org/2000/svg">
<g id="up-arrow 1" clip-path="url(#clip0_270_17225)">
<g id="Group">
<g id="Group_2">
<path id="Vector" d="M2.4552 10.724C2.45706 10.7259 2.45895 10.7277 2.46085 10.7296L8.28754 16.564C8.33383 16.61 8.38499 16.6509 8.44008 16.686L8.60786 16.7775L8.72225 16.8157L8.80616 16.8157C8.93471 16.8393 9.06652 16.8393 9.19512 16.8157L9.27137 16.8157L9.36289 16.8157L9.49255 16.747C9.5648 16.7078 9.63151 16.659 9.69086 16.6021L15.5404 10.7296C15.9321 10.341 15.9347 9.70844 15.5461 9.31673C15.5442 9.31484 15.5423 9.31298 15.5404 9.31108C15.1456 8.93435 14.5244 8.93435 14.1295 9.31108L10.6442 12.7888C10.4938 12.9362 10.2523 12.9339 10.1049 12.7835C10.0363 12.7135 9.99727 12.6199 9.99591 12.5219L9.99591 1.16588C9.99594 0.614088 9.54868 0.166751 8.99688 0.166717C8.44509 0.166681 7.99779 0.613944 7.99772 1.16574L7.99772 1.16588L7.99772 12.5219C7.99475 12.7324 7.82165 12.9008 7.61108 12.8978C7.51313 12.8964 7.41943 12.8574 7.34947 12.7888L3.87936 9.31108C3.4835 8.92949 2.85667 8.92949 2.46081 9.31108C2.0691 9.69968 2.06656 10.3323 2.4552 10.724Z" fill="white"/>
</g>
</g>
</g>
<defs>
<clipPath id="clip0_270_17225">
<rect width="16.6667" height="16.6667" fill="white" transform="translate(17.334 16.8334) rotate(-180)"/>
</clipPath>
</defs>
</svg>
