<svg viewBox="0 0 24 24" fill="none" xmlns="http://www.w3.org/2000/svg">
<g id="solar:money-bag-outline">
<line id="Line 5" x1="7.75" y1="6" x2="7.75" y2="22" stroke="" stroke-width="1.5"/>
<line id="Line 6" x1="16.75" y1="6" x2="16.75" y2="22" stroke="" stroke-width="1.5"/>
<path id="Vector" fill-rule="evenodd" clip-rule="evenodd" d="M11.948 1.25H12.052C12.951 1.25 13.7 1.25 14.294 1.33C14.922 1.414 15.489 1.6 15.944 2.055C16.4 2.511 16.586 3.078 16.67 3.705C16.73 4.145 16.745 4.669 16.749 5.275C17.397 5.296 17.975 5.335 18.489 5.403C19.661 5.561 20.61 5.893 21.359 6.641C22.107 7.39 22.439 8.339 22.597 9.511C22.75 10.651 22.75 12.106 22.75 13.944V14.056C22.75 15.894 22.75 17.35 22.597 18.489C22.439 19.661 22.107 20.61 21.359 21.359C20.61 22.107 19.661 22.439 18.489 22.597C17.349 22.75 15.894 22.75 14.056 22.75H9.944C8.106 22.75 6.65 22.75 5.511 22.597C4.339 22.439 3.39 22.107 2.641 21.359C1.893 20.61 1.561 19.661 1.403 18.489C1.25 17.349 1.25 15.894 1.25 14.056V13.944C1.25 12.106 1.25 10.65 1.403 9.511C1.561 8.339 1.893 7.39 2.641 6.641C3.39 5.893 4.339 5.561 5.511 5.403C6.08859 5.33223 6.66927 5.28952 7.251 5.275C7.255 4.669 7.271 4.145 7.33 3.705C7.414 3.078 7.6 2.511 8.055 2.055C8.511 1.6 9.078 1.415 9.705 1.33C10.3 1.25 11.05 1.25 11.948 1.25ZM8.752 5.252C9.13 5.25 9.52733 5.24933 9.944 5.25H14.056C14.4727 5.25 14.87 5.25067 15.248 5.252C15.244 4.682 15.23 4.252 15.184 3.905C15.121 3.444 15.014 3.246 14.884 3.116C14.754 2.986 14.556 2.879 14.094 2.816C13.612 2.752 12.964 2.75 12 2.75C11.036 2.75 10.388 2.752 9.905 2.817C9.444 2.879 9.246 2.986 9.116 3.117C8.986 3.248 8.879 3.444 8.816 3.905C8.77 4.251 8.756 4.681 8.752 5.252ZM5.71 6.89C4.704 7.025 4.124 7.279 3.7 7.702C3.278 8.125 3.024 8.705 2.889 9.711C2.751 10.738 2.749 12.093 2.749 14C2.749 15.907 2.751 17.262 2.889 18.29C3.024 19.295 3.278 19.875 3.701 20.298C4.124 20.721 4.704 20.975 5.71 21.11C6.738 21.248 8.092 21.25 9.999 21.25H13.999C15.906 21.25 17.261 21.248 18.289 21.11C19.294 20.975 19.874 20.721 20.297 20.298C20.72 19.875 20.974 19.295 21.109 18.289C21.247 17.262 21.249 15.907 21.249 14C21.249 12.093 21.247 10.739 21.109 9.71C20.974 8.705 20.72 8.125 20.297 7.702C19.874 7.279 19.294 7.025 18.288 6.89C17.261 6.752 15.906 6.75 13.999 6.75H9.999C8.092 6.75 6.739 6.752 5.71 6.89Z" fill=""/>
</g>
</svg>
