<?xml version="1.0" standalone="no"?>
<!DOCTYPE svg PUBLIC "-//W3C//DTD SVG 20010904//EN"
 "http://www.w3.org/TR/2001/REC-SVG-20010904/DTD/svg10.dtd">
<svg version="1.0" xmlns="http://www.w3.org/2000/svg"
 width="100.000000pt" height="100.000000pt" viewBox="0 0 100.000000 100.000000"
 preserveAspectRatio="xMidYMid meet">

<g transform="translate(0.000000,100.000000) scale(0.100000,-0.100000)"
fill="#000000" stroke="none">
<path d="M160 900 c-20 -20 -20 -31 -18 -418 l3 -397 355 0 355 0 3 397 c2
387 2 398 -18 418 -19 19 -33 20 -340 20 -307 0 -321 -1 -340 -20z m200 -130
l0 -50 -60 0 -60 0 0 50 0 50 60 0 60 0 0 -50z m200 0 l0 -50 -60 0 -60 0 0
50 0 50 60 0 60 0 0 -50z m200 0 l0 -50 -60 0 -60 0 0 50 0 50 60 0 60 0 0
-50z m-400 -180 l0 -50 -60 0 -60 0 0 50 0 50 60 0 60 0 0 -50z m200 0 l0 -50
-60 0 -60 0 0 50 0 50 60 0 60 0 0 -50z m200 0 l0 -50 -60 0 -60 0 0 50 0 50
60 0 60 0 0 -50z m-400 -180 l0 -50 -60 0 -60 0 0 50 0 50 60 0 60 0 0 -50z
m200 0 l0 -50 -60 0 -60 0 0 50 0 50 60 0 60 0 0 -50z m200 0 l0 -50 -60 0
-60 0 0 50 0 50 60 0 60 0 0 -50z m-400 -180 l0 -50 -60 0 -60 0 0 50 0 50 60
0 60 0 0 -50z m200 -30 l0 -80 -60 0 -60 0 0 80 0 80 60 0 60 0 0 -80z m200
30 l0 -50 -60 0 -60 0 0 50 0 50 60 0 60 0 0 -50z"/>
</g>
</svg>
