<svg viewBox="0 0 16 16" fill="none" xmlns="http://www.w3.org/2000/svg">
<path d="M10.3078 6.61547V4.76928M2 11.6925L4.25604 13.5719C4.58768 13.8485 5.00577 14 5.4376 14.0002H11.3851C11.8097 14.0002 12.154 13.6559 12.154 13.2313C12.154 12.382 11.4654 11.6925 10.6152 11.6925H6.48069M10.3078 9.38474C11.2871 9.38474 12.2263 8.99573 12.9187 8.30327C13.6112 7.61082 14.0002 6.67165 14.0002 5.69237C14.0002 4.71309 13.6112 3.77392 12.9187 3.08147C12.2263 2.38902 11.2871 2 10.3078 2C9.32856 2 8.38939 2.38902 7.69694 3.08147C7.00448 3.77392 6.61547 4.71309 6.61547 5.69237C6.61547 6.67165 7.00448 7.61082 7.69694 8.30327C8.38939 8.99573 9.32856 9.38474 10.3078 9.38474Z" stroke="" stroke-linecap="round" stroke-linejoin="round"/>
<path d="M4.76928 10.7692L5.4616 11.4615C5.64521 11.6451 5.89425 11.7482 6.15392 11.7482C6.41359 11.7482 6.66262 11.6451 6.84624 11.4615C7.02985 11.2779 7.13301 11.0288 7.13301 10.7692C7.13301 10.5095 7.02985 10.2605 6.84624 10.0768L5.77176 9.00236C5.42561 8.65611 4.9561 8.46153 4.4665 8.46143H2" stroke="" stroke-linecap="round" stroke-linejoin="round"/>
</svg>
