<svg width="24" height="24" viewBox="0 0 24 24" fill="none" xmlns="http://www.w3.org/2000/svg">
<path fill-rule="evenodd" clip-rule="evenodd" d="M8.32323 7.38719C8.80098 7.28223 9.36327 7.25 10 7.25H14C14.6367 7.25 15.199 7.28223 15.6768 7.38719C16.163 7.494 16.6083 7.68612 16.9611 8.03892C17.3139 8.39172 17.506 8.83699 17.6128 9.32323C17.7178 9.80098 17.75 10.3632 17.75 11V22C17.75 22.4142 17.4142 22.75 17 22.75H7C6.58579 22.75 6.25 22.4142 6.25 22V11C6.25 10.3632 6.28223 9.80098 6.38719 9.32323C6.49401 8.83699 6.68612 8.39172 7.03892 8.03892C7.39172 7.68612 7.83699 7.494 8.32323 7.38719ZM7.85225 9.64508C7.78252 9.96251 7.75 10.3957 7.75 11V21.25H16.25V11C16.25 10.3957 16.2175 9.96251 16.1477 9.64508C16.0799 9.33614 15.9874 9.18653 15.9004 9.09958C15.8135 9.01263 15.6639 8.92012 15.3549 8.85225C15.0375 8.78252 14.6043 8.75 14 8.75H10C9.39573 8.75 8.96252 8.78252 8.64508 8.85225C8.33614 8.92012 8.18653 9.01263 8.09958 9.09958C8.01263 9.18653 7.92012 9.33614 7.85225 9.64508Z" fill="#25272D"/>
<path fill-rule="evenodd" clip-rule="evenodd" d="M10.25 12C10.25 11.5858 10.5858 11.25 11 11.25H13C13.4142 11.25 13.75 11.5858 13.75 12C13.75 12.4142 13.4142 12.75 13 12.75H11C10.5858 12.75 10.25 12.4142 10.25 12ZM10.25 15C10.25 14.5858 10.5858 14.25 11 14.25H13C13.4142 14.25 13.75 14.5858 13.75 15C13.75 15.4142 13.4142 15.75 13 15.75H11C10.5858 15.75 10.25 15.4142 10.25 15ZM10.25 18C10.25 17.5858 10.5858 17.25 11 17.25H13C13.4142 17.25 13.75 17.5858 13.75 18C13.75 18.4142 13.4142 18.75 13 18.75H11C10.5858 18.75 10.25 18.4142 10.25 18Z" fill="#25272D"/>
<path fill-rule="evenodd" clip-rule="evenodd" d="M13.8988 1.29456C14.1811 1.35916 14.483 1.4915 14.7883 1.64736L19.163 3.88104C19.6727 4.14129 20.1058 4.36238 20.4451 4.58289C20.807 4.818 21.1149 5.08445 21.3429 5.4613C21.5704 5.83721 21.6651 6.23477 21.7088 6.66654C21.75 7.07331 21.75 7.56608 21.75 8.14922V22C21.75 22.4142 21.4142 22.75 21 22.75C20.5858 22.75 20.25 22.4142 20.25 22V8.18561C20.25 7.55638 20.2491 7.13996 20.2165 6.81764C20.1855 6.51187 20.1309 6.35559 20.0597 6.23796C19.989 6.12127 19.8786 6.00362 19.6279 5.84069C19.362 5.66791 18.9995 5.4818 18.4478 5.20009L14.1062 2.9833C13.9665 2.91199 13.8541 2.86046 13.7646 2.82407C13.7555 2.92689 13.75 3.05944 13.75 3.2287V7.70347C13.75 8.11768 13.4142 8.45347 13 8.45347C12.5858 8.45347 12.25 8.11768 12.25 7.70347V3.2287C12.25 2.88936 12.2675 2.56352 12.3326 2.28487C12.396 2.01335 12.5344 1.65803 12.8809 1.43378C13.2338 1.20539 13.6189 1.23054 13.8988 1.29456ZM13.5261 2.74978C13.5239 2.74971 13.5227 2.74954 13.5227 2.74954L13.5261 2.74978Z" fill="#25272D"/>
<path fill-rule="evenodd" clip-rule="evenodd" d="M3.75832 12.7583C3.75336 12.816 3.75 12.8942 3.75 13V22C3.75 22.4142 3.41421 22.75 3 22.75C2.58579 22.75 2.25 22.4142 2.25 22V13C2.25 12.7769 2.26065 12.5465 2.30737 12.3338C2.35596 12.1126 2.4532 11.8656 2.65942 11.6594C2.86564 11.4532 3.11261 11.3559 3.3338 11.3073C3.54648 11.2606 3.77694 11.25 4 11.25H7C7.41421 11.25 7.75 11.5858 7.75 12C7.75 12.4142 7.41421 12.75 7 12.75H4C3.89428 12.75 3.81601 12.7533 3.75832 12.7583Z" fill="#25272D"/>
<path fill-rule="evenodd" clip-rule="evenodd" d="M1.25 22C1.25 21.5858 1.58579 21.25 2 21.25H22C22.4142 21.25 22.75 21.5858 22.75 22C22.75 22.4142 22.4142 22.75 22 22.75H2C1.58579 22.75 1.25 22.4142 1.25 22Z" fill="#25272D"/>
</svg>
