<?xml version="1.0" standalone="no"?>
<!DOCTYPE svg PUBLIC "-//W3C//DTD SVG 20010904//EN"
 "http://www.w3.org/TR/2001/REC-SVG-20010904/DTD/svg10.dtd">
<svg version="1.0" xmlns="http://www.w3.org/2000/svg"
 width="100.000000pt" height="100.000000pt" viewBox="0 0 100.000000 100.000000"
 preserveAspectRatio="xMidYMid meet">

<g transform="translate(0.000000,100.000000) scale(0.100000,-0.100000)"
fill="#000000" stroke="none">
<path d="M872 948 c-7 -7 -12 -20 -12 -31 0 -28 -152 -236 -173 -237 -26 0
-140 60 -155 82 -19 26 -52 19 -71 -14 -21 -35 -138 -128 -162 -128 -10 0 -24
-8 -31 -18 -16 -22 -119 -65 -160 -66 -38 -1 -58 -28 -42 -53 15 -25 50 -28
66 -6 16 23 118 66 161 67 22 1 35 8 46 28 23 40 139 128 168 128 32 0 143
-56 160 -80 24 -35 73 -19 73 23 0 24 149 232 175 243 11 5 21 17 23 27 7 37
-39 62 -66 35z"/>
<path d="M820 350 l0 -350 80 0 80 0 0 350 0 350 -80 0 -80 0 0 -350z"/>
<path d="M420 260 l0 -260 80 0 80 0 0 260 0 260 -80 0 -80 0 0 -260z"/>
<path d="M620 210 l0 -210 80 0 80 0 0 210 0 210 -80 0 -80 0 0 -210z"/>
<path d="M220 180 l0 -180 80 0 80 0 0 180 0 180 -80 0 -80 0 0 -180z"/>
<path d="M20 140 l0 -140 80 0 80 0 0 140 0 140 -80 0 -80 0 0 -140z"/>
</g>
</svg>
