<svg width="25" height="24" viewBox="0 0 25 24" fill="none" xmlns="http://www.w3.org/2000/svg">
<path d="M13.082 19.5H7.08203C5.84153 19.5 4.83203 18.4905 4.83203 17.25V4.5C4.83203 3.2595 5.84153 2.25 7.08203 2.25H16.082C17.3225 2.25 18.332 3.2595 18.332 4.5V8.295C18.332 8.709 18.6673 9.045 19.082 9.045C19.4968 9.045 19.832 8.709 19.832 8.295V4.5C19.832 2.43225 18.1498 0.75 16.082 0.75H7.08203C5.01428 0.75 3.33203 2.43225 3.33203 4.5V17.25C3.33203 19.3177 5.01428 21 7.08203 21H13.082C13.4968 21 13.832 20.664 13.832 20.25C13.832 19.836 13.4968 19.5 13.082 19.5Z" fill=""/>
<path d="M7.83203 6.75H13.082C13.4968 6.75 13.832 6.414 13.832 6C13.832 5.586 13.4968 5.25 13.082 5.25H7.83203C7.41728 5.25 7.08203 5.586 7.08203 6C7.08203 6.414 7.41728 6.75 7.83203 6.75Z" fill=""/>
<path d="M14.852 9.75C14.852 9.336 14.5168 9 14.102 9H7.83203C7.41728 9 7.08203 9.336 7.08203 9.75C7.08203 10.164 7.41728 10.5 7.83203 10.5H14.102C14.5168 10.5 14.852 10.164 14.852 9.75Z" fill=""/>
<path d="M12.722 12.75C12.722 12.336 12.3868 12 11.972 12H7.83203C7.41728 12 7.08203 12.336 7.08203 12.75C7.08203 13.164 7.41728 13.5 7.83203 13.5H11.972C12.3868 13.5 12.722 13.164 12.722 12.75Z" fill=""/>
<path d="M7.83203 15C7.41728 15 7.08203 15.336 7.08203 15.75C7.08203 16.164 7.41728 16.5 7.83203 16.5H11.627C12.0418 16.5 12.377 16.164 12.377 15.75C12.377 15.336 12.0418 15 11.627 15H7.83203Z" fill=""/>
<path d="M22.832 15C22.832 12.5182 20.8138 10.5 18.332 10.5C15.8503 10.5 13.832 12.5182 13.832 15C13.832 16.3282 14.414 17.52 15.332 18.345V22.1227C15.332 22.5382 15.5608 22.9192 15.9275 23.1157C16.2965 23.3137 16.7375 23.292 17.0855 23.0602L18.332 22.2233L19.5815 23.0618C19.769 23.187 19.985 23.2493 20.2025 23.2493C20.3848 23.2493 20.5685 23.205 20.7365 23.115C21.1033 22.9185 21.332 22.5375 21.332 22.122V18.3442C22.25 17.52 22.832 16.329 22.832 15ZM19.832 21.423L18.7505 20.697C18.497 20.5268 18.1678 20.5268 17.9143 20.697L16.8328 21.423V19.2375C17.303 19.4047 17.8063 19.5 18.3328 19.5C18.8593 19.5 19.3625 19.404 19.8328 19.2375L19.832 21.423ZM18.332 18C16.6775 18 15.332 16.6545 15.332 15C15.332 13.3455 16.6775 12 18.332 12C19.9865 12 21.332 13.3455 21.332 15C21.332 16.6545 19.9865 18 18.332 18Z" fill=""/>
</svg>
