<svg viewBox="0 0 16 16" fill="none" xmlns="http://www.w3.org/2000/svg">
<g clip-path="url(#clip0_60_2103)">
<path d="M12.9121 0.600159C12.403 0.600159 3.65003 0.600159 3.08882 0.600159L0 4.81216L8.03319 15.3998L16 4.81094L12.9121 0.600159ZM4.3916 5.27489L6.65486 12.0365L1.52465 5.27489H4.3916ZM5.37757 5.27489H10.6261L8.01985 13.1689L5.37757 5.27489ZM11.6107 5.27489H14.481L9.36633 12.0728L11.6107 5.27489ZM12.4383 1.53511L14.4951 4.33995H11.6114L10.691 1.53511H12.4383ZM9.70703 1.53511L10.6274 4.33995H5.37352L6.29385 1.53511H9.70703ZM3.56259 1.53511H5.30981L4.38948 4.33995H1.5057L3.56259 1.53511Z" fill=""/>
</g>
<defs>
<clipPath id="clip0_60_2103">
<rect width="16" height="16" fill="white"/>
</clipPath>
</defs>
</svg>
