<?xml version="1.0" encoding="UTF-8"?><svg id="Layer_2" xmlns="http://www.w3.org/2000/svg" viewBox="0 0 17.39 15.25"><g id="Layer_1-2"><g><path d="m1.55,15.25h14.29v-1.91H1.55v1.91Z" fill="#80461B"/><path d="m17.36,5.31c-.02-.09-.11-.14-.2-.13-.09.01-.17.03-.26.05-.05.01-.09.06-.14.09-1.34.93-2.68,1.87-4.03,2.8-.51.36-.63.33-.91-.25-.91-1.84-1.81-3.69-2.71-5.53,0-.01-.01-.03-.02-.04-.22-.46-.57-.46-.8,0,0,0,0,0,0,0-.92,1.88-1.85,3.76-2.77,5.64-.23.47-.38.51-.8.22-.47-.32-.94-.65-1.41-.98-.94-.65-1.88-1.31-2.83-1.96-.07-.05-.16-.06-.26-.06-.09,0-.17.05-.18.14-.01.08-.03.15-.04.23,0,.04.02.08.03.12.47,2.14.95,4.28,1.42,6.42.12.54.13.55.7.55,2.18,0,4.36,0,6.54,0,2.18,0,4.36,0,6.54,0,.57,0,.58-.01.7-.55.24-1.08.48-2.15.72-3.23.24-1.1.49-2.21.72-3.31.02-.07,0-.15-.02-.23Z" fill="#80461B"/><path d="m8.67,1.69c.46.01.86-.36.87-.81C9.56.41,9.17,0,8.7,0c-.45,0-.84.38-.86.83-.01.45.38.85.83.86Z" fill="#80461B"/></g></g></svg>