<?xml version="1.0" standalone="no"?>
<!DOCTYPE svg PUBLIC "-//W3C//DTD SVG 20010904//EN"
 "http://www.w3.org/TR/2001/REC-SVG-20010904/DTD/svg10.dtd">
<svg version="1.0" xmlns="http://www.w3.org/2000/svg"
 width="100.000000pt" height="100.000000pt" viewBox="0 0 100.000000 100.000000"
 preserveAspectRatio="xMidYMid meet">

<g transform="translate(0.000000,100.000000) scale(0.100000,-0.100000)"
fill="#000000" stroke="none">
<path d="M131 906 c-49 -27 -50 -37 -51 -404 0 -372 2 -386 55 -410 41 -19
697 -17 734 2 49 26 51 41 51 406 0 365 -2 380 -51 406 -39 20 -702 20 -738 0z
m583 -196 c22 -8 26 -16 26 -50 0 -40 0 -40 -38 -40 -48 0 -62 -14 -62 -62 l0
-38 51 0 c43 0 50 -2 45 -17 -2 -10 -7 -33 -11 -50 -6 -31 -10 -33 -46 -33
l-39 0 0 -150 0 -150 -50 0 -50 0 0 150 0 150 -40 0 -40 0 0 50 0 50 40 0 40
0 0 45 c0 116 79 181 174 145z"/>
</g>
</svg>
