<?xml version="1.0" standalone="no"?>
<!DOCTYPE svg PUBLIC "-//W3C//DTD SVG 20010904//EN"
 "http://www.w3.org/TR/2001/REC-SVG-20010904/DTD/svg10.dtd">
<svg version="1.0" xmlns="http://www.w3.org/2000/svg"
 width="48.000000pt" height="48.000000pt" viewBox="0 0 48.000000 48.000000"
 preserveAspectRatio="xMidYMid meet">

<g transform="translate(0.000000,48.000000) scale(0.100000,-0.100000)"
fill="#000000" stroke="none">
<path d="M140 360 c-11 -11 -20 -29 -20 -40 0 -26 34 -60 60 -60 26 0 60 34
60 60 0 11 -9 29 -20 40 -11 11 -29 20 -40 20 -11 0 -29 -9 -40 -20z"/>
<path d="M297 322 c-22 -24 -21 -45 1 -65 24 -22 45 -21 65 1 22 24 21 45 -1
65 -24 22 -45 21 -65 -1z"/>
<path d="M105 205 c-47 -17 -67 -41 -63 -75 3 -24 7 -25 71 -28 l67 -3 0 34
c0 20 9 46 21 61 l20 26 -38 0 c-21 -1 -56 -7 -78 -15z"/>
<path d="M274 190 c-40 -12 -56 -32 -52 -62 3 -22 6 -23 108 -23 l105 0 3 27
c2 19 -3 31 -21 42 -30 20 -103 28 -143 16z"/>
</g>
</svg>
