<svg width="41" height="40" viewBox="0 0 41 40" fill="none" xmlns="http://www.w3.org/2000/svg">
<path d="M10.0608 23.9116L8.75547 28.7846L3.98455 28.8855C2.55874 26.2409 1.75 23.2152 1.75 19.9999C1.75 16.8907 2.50615 13.9587 3.84648 11.377H3.84751L8.09497 12.1557L9.95562 16.3776C9.56619 17.513 9.35393 18.7317 9.35393 19.9999C9.35408 21.3763 9.60339 22.695 10.0608 23.9116Z" fill="#FBBB00"/>
<path d="M38.9223 16.4973C39.1376 17.6315 39.2499 18.8029 39.2499 20C39.2499 21.3424 39.1088 22.6519 38.8399 23.9149C37.9271 28.213 35.5422 31.9661 32.2383 34.622L32.2373 34.6209L26.8874 34.348L26.1302 29.6213C28.3225 28.3356 30.0357 26.3236 30.9382 23.9149H20.9121V16.4973H31.0845H38.9223Z" fill="#518EF8"/>
<path d="M32.2371 34.621L32.2381 34.622C29.0249 37.2047 24.9431 38.7501 20.4998 38.7501C13.3594 38.7501 7.15129 34.759 3.98438 28.8857L10.0606 23.9119C11.644 28.1378 15.7206 31.1461 20.4998 31.1461C22.5541 31.1461 24.4786 30.5907 26.13 29.6213L32.2371 34.621Z" fill="#28B446"/>
<path d="M32.4692 5.5666L26.395 10.5395C24.6859 9.47114 22.6656 8.854 20.5012 8.854C15.6138 8.854 11.461 12.0003 9.95686 16.3777L3.84868 11.3771H3.84766C6.96821 5.36057 13.2546 1.25 20.5012 1.25C25.0506 1.25 29.222 2.87056 32.4692 5.5666Z" fill="#F14336"/>
</svg>
