<?xml version="1.0" encoding="UTF-8"?>
<svg id="Layer_2" data-name="Layer 2" xmlns="http://www.w3.org/2000/svg" viewBox="0 0 243.84 243.84">
  <defs>
    <style>
      .cls-1 {
        fill: #fff;
      }

      .cls-2 {
        fill: #00a651;
      }
    </style>
  </defs>
  <g id="Layer_1-2" data-name="Layer 1">
    <g>
      <circle class="cls-2" cx="121.92" cy="121.92" r="121.92"/>
      <g>
        <path class="cls-1" d="M211.91,130.19c.06,1.23-1.22,2.06-2.8,2.7-8.2,3.35-16.4,6.73-24.59,10.1-11.02,4.53-22.05,9.03-33.03,13.64-1.17,.49-2.36,1.47-3.04,2.53-11.26,17.56-22.44,35.16-33.62,52.77-.91,1.43-1.9,2.67-3.79,2.33-1.99-.35-2.8-1.76-3.19-3.65-5.04-24.84-10.12-49.67-15.17-74.51-3.66-18-7.3-36.01-10.98-54.01-.32-1.58-.5-3.06,.88-4.2,1.37-1.14,2.83-.72,4.31-.13,25.27,9.96,50.55,19.91,75.83,29.87,15.34,6.04,30.66,12.11,46.01,18.14,1.76,.69,3.1,1.6,3.19,4.42Z"/>
        <path class="cls-1" d="M75.23,62.81c-.11,2.74-1.07,4.25-3,5.08-1.9,.82-3.92,.29-5.48-1.51-2.19-2.53-4.31-5.11-6.46-7.67-2.1-2.51-4.22-5-6.3-7.53-2.06-2.5-2-5.42,.1-7.18,2.15-1.8,4.96-1.41,7.08,1.09,4.19,4.93,8.36,9.88,12.46,14.88,.79,.97,1.25,2.21,1.6,2.84Z"/>
        <path class="cls-1" d="M65.53,111.34c2.62,.16,4.03,1.12,4.71,2.9,.69,1.82,.53,3.74-.99,5.05-5.51,4.74-11.06,9.43-16.73,13.98-1.96,1.57-4.75,.96-6.26-.93-1.46-1.82-1.35-4.74,.51-6.34,5.34-4.6,10.75-9.13,16.21-13.59,.84-.68,2.07-.88,2.55-1.07Z"/>
        <path class="cls-1" d="M57.13,93.53c-7.08-.61-13.95-1.15-20.81-1.82-3.01-.3-4.72-2.6-4.34-5.43,.33-2.51,2.56-4.17,5.38-3.93,6.65,.56,13.3,1.12,19.95,1.74,2.95,.28,4.88,2.37,4.76,4.95-.12,2.64-2.29,4.54-4.94,4.5Z"/>
        <path class="cls-1" d="M123.88,72.8c-2.96-.09-4.53-1.01-5.23-3.01-.76-2.14-.18-4.01,1.56-5.48,4.95-4.16,9.91-8.32,14.86-12.47,.28-.23,.55-.48,.85-.69,2.23-1.61,5.08-1.34,6.65,.62,1.66,2.07,1.49,4.76-.68,6.62-4.8,4.12-9.66,8.16-14.55,12.17-1.24,1.01-2.7,1.76-3.46,2.24Z"/>
        <path class="cls-1" d="M104.14,35.63c-.58,6.44-1.11,12.89-1.76,19.33-.32,3.17-2.36,4.89-5.17,4.64-2.66-.24-4.35-2.3-4.12-5.41,.51-6.81,1.12-13.62,1.78-20.42,.25-2.62,2.45-4.42,4.92-4.26,2.54,.16,4.35,2.15,4.37,4.8,0,.44-.04,.87-.06,1.31,.01,0,.03,0,.04,0Z"/>
      </g>
    </g>
  </g>
</svg>