<?xml version="1.0" standalone="no"?>
<!DOCTYPE svg PUBLIC "-//W3C//DTD SVG 20010904//EN"
 "http://www.w3.org/TR/2001/REC-SVG-20010904/DTD/svg10.dtd">
<svg version="1.0" xmlns="http://www.w3.org/2000/svg"
 width="100.000000pt" height="100.000000pt" viewBox="0 0 100.000000 100.000000"
 preserveAspectRatio="xMidYMid meet">

<g transform="translate(0.000000,100.000000) scale(0.100000,-0.100000)"
fill="#000000" stroke="none">
<path d="M250 931 c-70 -22 -131 -74 -166 -141 -17 -31 -19 -61 -19 -290 0
-229 2 -259 19 -290 26 -49 74 -98 121 -123 38 -21 53 -22 295 -22 229 0 259
2 290 19 49 26 98 74 123 121 21 38 22 53 22 295 0 242 -1 257 -22 295 -25 47
-74 95 -123 121 -31 17 -62 19 -275 21 -132 1 -251 -2 -265 -6z m520 -166 c26
-32 -13 -81 -47 -59 -35 22 -23 74 17 74 10 0 23 -7 30 -15z m-154 -81 c68
-42 107 -117 102 -196 -12 -168 -191 -261 -334 -172 -68 42 -107 117 -102 196
12 168 191 261 334 172z"/>
<path d="M420 658 c-132 -67 -132 -249 0 -315 56 -29 104 -29 160 -1 132 67
132 249 0 316 -24 12 -60 22 -80 22 -20 0 -56 -10 -80 -22z"/>
</g>
</svg>
