<svg xmlns="http://www.w3.org/2000/svg" width="60" height="59" viewBox="0 0 60 59" fill="none">
  <rect x="0.5" width="59" height="59" rx="29.5" fill="url(#paint0_linear_388_22875)"/>
  <path d="M30.5 32.3333C30.0757 32.3333 29.6687 32.1577 29.3686 31.8452C29.0686 31.5326 28.9 31.1087 28.9 30.6667V20.6667C28.9 20.2246 29.0686 19.8007 29.3686 19.4882C29.6687 19.1756 30.0757 19 30.5 19C30.9243 19 31.3313 19.1756 31.6314 19.4882C31.9314 19.8007 32.1 20.2246 32.1 20.6667V30.6667C32.1 31.1087 31.9314 31.5326 31.6314 31.8452C31.3313 32.1577 30.9243 32.3333 30.5 32.3333ZM30.5 39C30.1044 39 29.7178 38.8778 29.3889 38.6489C29.06 38.42 28.8036 38.0946 28.6522 37.7139C28.5009 37.3332 28.4613 36.9144 28.5384 36.5102C28.6156 36.1061 28.8061 35.7349 29.0858 35.4435C29.3655 35.1522 29.7219 34.9537 30.1098 34.8734C30.4978 34.793 30.8999 34.8342 31.2654 34.9919C31.6308 35.1496 31.9432 35.4166 32.1629 35.7592C32.3827 36.1018 32.5 36.5046 32.5 36.9167C32.5 37.4692 32.2893 37.9991 31.9142 38.3898C31.5391 38.7805 31.0304 39 30.5 39Z" fill="#E14141"/>
  <defs>
    <linearGradient id="paint0_linear_388_22875" x1="0.5" y1="0" x2="71.6182" y2="32.4032" gradientUnits="userSpaceOnUse">
      <stop stop-color="#FBF6F5"/>
      <stop offset="1" stop-color="#F1F6FF"/>
    </linearGradient>
  </defs>
</svg>