<svg viewBox="0 0 59 59" fill="none" xmlns="http://www.w3.org/2000/svg">
<rect width="59" height="59" rx="29.5" fill="url(#paint0_linear_532_28948)"/>
<path d="M40.6981 30.7108V25.2628C40.6981 23.6574 40.0604 22.1177 38.9251 20.9825C37.7899 19.8472 36.2502 19.2095 34.6448 19.2095H24.3541C22.7487 19.2095 21.209 19.8472 20.0738 20.9825C18.9385 22.1177 18.3008 23.6574 18.3008 25.2628V33.7375C18.3008 34.5324 18.4574 35.3196 18.7616 36.054C19.0658 36.7884 19.5117 37.4557 20.0738 38.0178C21.209 39.153 22.7487 39.7908 24.3541 39.7908H31.9329" stroke="#74767E" stroke-width="1.5" stroke-linecap="round" stroke-linejoin="round"/>
<path d="M18.6172 35.5534L21.9344 31.6793C22.3701 31.2466 22.9418 30.9778 23.5529 30.9182C24.164 30.8586 24.777 31.012 25.288 31.3524C25.799 31.6928 26.4119 31.8462 27.023 31.7867C27.6341 31.7271 28.2059 31.4582 28.6415 31.0255L31.4624 28.2047C32.2729 27.3914 33.346 26.8926 34.4903 26.7972C35.6345 26.7019 36.7754 27.0162 37.7094 27.6841L40.6998 29.9965M24.6705 27.2846C24.9344 27.283 25.1955 27.2294 25.4387 27.127C25.6819 27.0245 25.9026 26.8751 26.0881 26.6874C26.2735 26.4997 26.4202 26.2772 26.5198 26.0328C26.6193 25.7883 26.6697 25.5267 26.6681 25.2628C26.6665 24.9989 26.613 24.7378 26.5105 24.4946C26.408 24.2514 26.2587 24.0307 26.0709 23.8452C25.8832 23.6597 25.6607 23.513 25.4163 23.4135C25.1719 23.314 24.9102 23.2636 24.6463 23.2652C24.1133 23.2684 23.6034 23.4832 23.2288 23.8624C22.8542 24.2415 22.6455 24.754 22.6487 25.287C22.6519 25.82 22.8667 26.3299 23.2459 26.7045C23.6251 27.0791 24.1375 27.2878 24.6705 27.2846Z" stroke="#74767E" stroke-width="1.5" stroke-linecap="round" stroke-linejoin="round"/>
<path d="M37.6172 33.1323V39.1857" stroke="#74767E" stroke-width="1.5" stroke-miterlimit="10" stroke-linecap="round"/>
<path d="M40.3959 35.6806L38.0145 33.2993C37.9627 33.2473 37.9012 33.206 37.8335 33.1779C37.7658 33.1497 37.6932 33.1353 37.6198 33.1353C37.5465 33.1353 37.4738 33.1497 37.4061 33.1779C37.3384 33.206 37.2769 33.2473 37.2251 33.2993L34.8438 35.6806" stroke="#74767E" stroke-width="1.5" stroke-linecap="round" stroke-linejoin="round"/>
<defs>
<linearGradient id="paint0_linear_532_28948" x1="0" y1="0" x2="71.1182" y2="32.4032" gradientUnits="userSpaceOnUse">
<stop stop-color="#FBF6F5"/>
<stop offset="1" stop-color="#F1F6FF"/>
</linearGradient>
</defs>
</svg>
