<svg width="18" height="22" viewBox="0 0 18 22" fill="none" xmlns="http://www.w3.org/2000/svg">
<path d="M9.33398 1.25C13.4024 1.25 17.0839 4.37044 17.084 9.25098C17.084 10.7548 16.5065 12.4599 15.2559 14.3828C14.0066 16.3035 12.1116 18.3991 9.5498 20.6719C9.42949 20.7748 9.24941 20.7755 9.12891 20.6729C6.56129 18.3996 4.66374 16.3027 3.41309 14.3818C2.16137 12.4592 1.58398 10.7546 1.58398 9.25098C1.58405 4.37044 5.26558 1.25 9.33398 1.25ZM9.33398 6.15332C7.7479 6.15332 6.45898 7.45307 6.45898 9.03809C6.45921 10.6229 7.74804 11.9219 9.33398 11.9219C10.9199 11.9219 12.2088 10.6229 12.209 9.03809C12.209 7.45307 10.9201 6.15332 9.33398 6.15332Z" stroke="#25272D" stroke-width="1.5"/>
</svg>
