<svg viewBox="0 0 16 16" fill="none" xmlns="http://www.w3.org/2000/svg">
<path d="M12.6667 1.33337H8.66667C8.48986 1.33337 8.32029 1.40361 8.19526 1.52864C8.07024 1.65366 8 1.82323 8 2.00004C8 2.17685 8.07024 2.34642 8.19526 2.47145C8.32029 2.59647 8.48986 2.66671 8.66667 2.66671H12.6667C12.8435 2.66671 13.013 2.73695 13.1381 2.86197C13.2631 2.98699 13.3333 3.15656 13.3333 3.33337V12.6667C13.3333 12.8435 13.2631 13.0131 13.1381 13.1381C13.013 13.2631 12.8435 13.3334 12.6667 13.3334H8.66667C8.48986 13.3334 8.32029 13.4036 8.19526 13.5286C8.07024 13.6537 8 13.8232 8 14C8 14.1769 8.07024 14.3464 8.19526 14.4714C8.32029 14.5965 8.48986 14.6667 8.66667 14.6667H12.6667C13.1971 14.6667 13.7058 14.456 14.0809 14.0809C14.456 13.7058 14.6667 13.1971 14.6667 12.6667V3.33337C14.6667 2.80294 14.456 2.29423 14.0809 1.91916C13.7058 1.54409 13.1971 1.33337 12.6667 1.33337Z" fill=""/>
<path d="M5.13851 10.1954C5.20218 10.2569 5.25297 10.3304 5.28791 10.4118C5.32285 10.4931 5.34124 10.5806 5.34201 10.6691C5.34278 10.7576 5.32591 10.8454 5.29239 10.9273C5.25887 11.0093 5.20937 11.0837 5.14677 11.1463C5.08418 11.2089 5.00974 11.2584 4.92781 11.2919C4.84588 11.3254 4.75809 11.3423 4.66957 11.3415C4.58105 11.3408 4.49358 11.3224 4.41224 11.2874C4.3309 11.2525 4.25734 11.2017 4.19584 11.138L1.52918 8.47137C1.40419 8.34635 1.33398 8.17681 1.33398 8.00003C1.33398 7.82326 1.40419 7.65372 1.52918 7.5287L4.19584 4.86203C4.25734 4.79836 4.3309 4.74757 4.41224 4.71263C4.49358 4.67769 4.58105 4.6593 4.66957 4.65853C4.75809 4.65776 4.84588 4.67463 4.92781 4.70815C5.00974 4.74167 5.08418 4.79118 5.14677 4.85377C5.20937 4.91637 5.25887 4.9908 5.29239 5.07273C5.32591 5.15466 5.34278 5.24245 5.34201 5.33097C5.34124 5.41949 5.32285 5.50697 5.28791 5.5883C5.25297 5.66964 5.20218 5.7432 5.13851 5.8047L3.60984 7.33337H11.3338C11.5107 7.33337 11.6802 7.40361 11.8052 7.52863C11.9303 7.65365 12.0005 7.82322 12.0005 8.00003C12.0005 8.17684 11.9303 8.34641 11.8052 8.47144C11.6802 8.59646 11.5107 8.6667 11.3338 8.6667H3.60984L5.13851 10.1954Z" fill=""/>
</svg>
