<?xml version="1.0" standalone="no"?>
<!DOCTYPE svg PUBLIC "-//W3C//DTD SVG 20010904//EN"
 "http://www.w3.org/TR/2001/REC-SVG-20010904/DTD/svg10.dtd">
<svg version="1.0" xmlns="http://www.w3.org/2000/svg"
 width="100.000000pt" height="100.000000pt" viewBox="0 0 100.000000 100.000000"
 preserveAspectRatio="xMidYMid meet">

<g transform="translate(0.000000,100.000000) scale(0.100000,-0.100000)"
fill="#000000" stroke="none">
<path d="M383 945 c-85 -23 -143 -56 -208 -116 -169 -159 -179 -403 -24 -574
l49 -53 0 -86 0 -86 88 43 c85 42 88 43 147 34 248 -40 502 149 522 390 11
131 -34 241 -137 337 -119 110 -285 152 -437 111z m225 -399 c20 11 63 35 95
53 31 18 57 29 57 26 0 -4 -48 -59 -107 -122 l-108 -115 -57 62 -58 62 -57
-32 c-32 -18 -78 -44 -103 -58 l-45 -25 30 34 c16 19 68 73 115 121 l85 88 58
-58 58 -57 37 21z"/>
</g>
</svg>
