<?xml version="1.0" encoding="UTF-8"?>
<svg id="Layer_2" data-name="Layer 2" xmlns="http://www.w3.org/2000/svg" viewBox="0 0 243.84 243.84">
  <defs>
    <style>
      .cls-1 {
        fill: #fff;
      }

      .cls-2 {
        fill: #00a651;
      }
    </style>
  </defs>
  <g id="Layer_1-2" data-name="Layer 1">
    <circle class="cls-2" cx="121.92" cy="121.92" r="121.92"/>
    <path class="cls-1" d="M106.86,136.9c-.61-.03-1.04-.07-1.47-.07-12.44,0-24.89,0-37.33,0-4.4,0-6.32-1.88-6.34-6.28-.02-6.02-.01-12.05,0-18.07,.01-3.8,2.05-5.8,5.91-5.8,12.35,0,24.69,0,37.04,0,.68,0,1.35,0,2.2,0,0-.75,0-1.33,0-1.91,0-12.2,0-24.39,0-36.59,0-.74-.02-1.5,.15-2.2,.61-2.58,2.47-4.03,5.29-4.05,6.42-.04,12.84-.05,19.26,0,3.28,.03,5.32,2.01,5.34,5.25,.07,12.44,.07,24.88,.1,37.33,0,.64,0,1.28,0,2.17,.67,0,1.24,0,1.81,0,12.35,0,24.69,0,37.04,0,4.4,0,6.29,1.9,6.29,6.31,0,5.97,0,11.95,0,17.92,0,3.83-2.12,5.92-5.98,5.92-12.54,0-25.09,0-37.63,0-.43,0-.87,.04-1.53,.07,0,.69,0,1.31,0,1.93-.02,12.44-.03,24.88-.06,37.33,0,3.8-1.97,5.76-5.75,5.77-6.17,.02-12.35,.02-18.52,0-3.84-.01-5.81-2.02-5.81-5.88,0-12.44,0-24.89,0-37.33,0-.58,0-1.16,0-1.81Z"/>
  </g>
</svg>