<svg xmlns="http://www.w3.org/2000/svg" width="100%" height="100%" viewBox="0 0 300 300" fill="#000000"><path d="M96.6,153.1c-0.2-0.2-0.5-0.3-0.7-0.5c0.1-0.3,0-0.6-0.5-0.9c-0.6-1.2-1.2-1.2-2.2-1.5c-0.1-0.1-0.2-0.2-0.4-0.3c-0.5,0.5-1,0.2-1.5,0.6c-1.9,0.1-3.7,0.6-5.6,0.3c-1.1-0.1-2.1,0.1-3.1,0.5c-0.6-0.3-1,0.2-1.6,0c-1.4,0.1-2.7,0-4.1,0.4c-0.2-0.2-0.5-0.3-0.7-0.5c-10.3,1.7-20.8,1.8-31.1,3.3c0.2-0.2,0.3-0.5,0.5-0.7c1-0.5,1.9-1.1,2.9-1.8c0.6-1.6,1.6-0.4,2.3-1.6c0.6,0.3,1-0.5,1.5-0.6c0.4-0.4,0.8-0.2,1.1-0.8c0.5-0.5,1-0.2,1.5-0.6c0.1-0.1,0.2-0.2,0.3-0.4c0.5,0.2,0.8-0.3,1.1-0.8c1.3,0.2,2.3-1.1,3.5-1.9c0.2,0,0.4-0.1,0.6-0.2c0-0.1-0.1-0.2-0.1-0.3c0,0.1,0.1,0.2,0.1,0.3h0c0,0,0,0,0,0.1c0,0,0-0.1,0-0.1l0,0c0,0,0,0,0,0c0,0,0,0,0,0c2.5-0.7,4.8-2.4,7.2-4c0.3,0.1,0.6,0,0.9-0.5c1.4,0.5,2.4-1,3.6-1.2c0.1-0.1,0.2-0.2,0.3-0.4c2.2-0.7,4.3-1.8,6.5-3c0.3-0.4,0.6-0.2,0.9-0.5c11.3-5.4,22.9-9.1,34.9-10.9c-0.4-0.3-0.2-0.6-0.5-0.9c0.1-0.1,0.2-0.2,0.3-0.4c0.4,0.4,0.8,0.7,0.2,1.2c10.3,3.1,23.8-1.7,32.4,0.9c2.1-1.3,5-0.9,7.5-0.6c10.3,1,20,1.9,29.9,4.5c0.5-0.3,1-0.5,1.5-0.6c0.6,1.5,3.9,2.9,5.1,2c0.6,0.2,1.1,0,1.7,0.7c-0.1,1.2,2.5,2.3,3.1,1.7c8.1,2.4,16.3,7,25.6,12.8c0.1,0.1,0.2,0.2,0.4,0.3c0.9-1.5,0.9,0.3,1.7,0.7c0,1,1.6,0.8,3.2,2.3c0.1,0.1,0.2,0.2,0.4,0.3c1.2,1.3,3,1.4,3.2,2.3c0.1,0.1,0.2,0.2,0.4,0.3c1.2,0.9,2.4,1.7,3.6,2.6c0.2,0.2,0.5,0.3,0.7,0.5c0.1,0.1,0.2,0.2,0.4,0.3c0.7,0.5,1.4,1,2.2,1.5c0.7,0.5,1.4,1,2.2,1.5c1.1,0.8,2.2,1.5,3.2,2.3c0.3,0.1,0.7,0.5,1,0.2c0.1,0.1,0.2,0.2,0.4,0.3c0.9,1,3.4,1.7,3.3,2.9c-0.3-0.1-0.7-0.5-1-0.2c0.1,0.5,1.4,2.2,2.2,1.5c-0.4-0.4-1.1-0.7-0.8-1.1c0.4,0.3,0.7,0.5,1.1,0.8c2.6,0.6,3.5,1.9,6,3.7c1.6,0.7,1.4,1.7,2.6,2.4c1.3,1.2,3.7,3.8,4.8,3.9c0.1,0.1,0.2,0.2,0.4,0.3c-0.1,0.3,0,0.6,0.5,0.9c1.8,1.5,1.9,2.2,3.1,3.3c-0.3,0.6,0.6,0.9,1.2,1.4c0.2,0.2,0.5,0.3,0.7,0.5c0.1,0.8,0.7,1.6,1.6,2.3c3.3,3.1,5.8,6.9,9.7,10.7c0.4,1.2,1.1,2.1,2.5,1.8c3.4-0.9,8.5-4.2,7.7-8.6c0.4-2.6-0.2-4-2.5-5.6c-6.2-7.1-13-15.4-21.6-23c0.2-0.5-0.3-0.8-0.8-1.1c-2.3-1.2-2.7-2.7-4.8-3.9c-0.3-0.9-1.2-1.1-2.6-2.4c-1.7-2-7.4-5.6-9.7-8.5c-1.4-1-2.9-2.1-4.3-3.1c-0.2-0.2-0.5-0.3-0.7-0.5c-1.6-1.1-3.1-2.2-4.7-3.3c-3-2.1-3.8-2.2-7.5-4.8c-0.4-0.3-0.7-0.5-1.1-0.8c-0.5-0.3-1-0.7-1.4-1c-0.7-0.2-1.6-1.7-2.1-0.9c-8.2-4.9-14.9-8.7-22.2-11.5c-1.1-1.1-2-0.8-3-1.1c-1.7-1.4-3.1-0.9-4.8-2.4c-1.4,0-3-1.3-4.3-0.9c-0.1-0.1-0.2-0.2-0.4-0.3c-1.6-1.1-3-1.4-4.4-1.5c-3.8-1.1-7.5-1.7-11.2-2.5c-1.1,0.2-2.5-1.1-3.5-0.4c-9-1-18-1.6-26.8-1.2c-1.4-0.4-2.6,0-3.9,0.1c0,0,0,0,0,0c-0.3,0-0.7,0-1.2,0.1c-7.8,0.2-15.3,1.8-23.1,2c-0.1,0.1-0.2,0.2-0.3,0.4c-1.7,0-3.3,0.3-4.9,0.8c-0.2-0.1-0.5-0.2-0.6,0.1c-3.7,0.4-7.5,0.9-11.1,1.9c-2.7,0.3-5.4,0.8-7.9,2c-0.5,0.5-1,0.2-1.5,0.6c-1.1,0.6-2.3,0.2-3.2,1.5c-0.5-0.3-0.9-0.5-1.2,0.2c-6.3,2.2-12.4,5.2-18.5,8.5c-0.6-0.2-1.1-0.1-1.5,0.6c-0.6,0.4-1.2,0.5-1.7,0.9c-0.3-0.1-0.6,0-0.9,0.5c-1.8,0.7-3.5,1.8-5.2,2.8c-0.7-0.1-1.3,0.8-2,1.3c-0.8-0.1-1.4,0.4-2,1.3c-0.8,0.2-1.7,0.1-2.4,1c-3.5,1.4-6.6,4.7-10.1,5.8c0.8-1.2,1.8-3.2,3.2-5.3c-0.3-0.3-0.6-0.5-0.7-0.8c0.1,0.3,0.4,0.6,0.7,0.8c0.3-0.5,0.7-1,1-1.4c1.3-2.1,1.4-2.5,2.3-4.8c0.1-0.1,0.2-0.2,0.3-0.4c0.2-1.1,0.7-2.2,0.7-3.3c0.5,0.3,0.9,0.5,1.2-0.2c-0.2-0.2-0.5-0.3-0.7-0.5c0.3-0.5,0.7-1,1-1.4c0.5-1.9-0.1-3.6,1.3-5.6c-0.4-0.3-0.7-0.5-1.1-0.8c0.9-2.7,0.6-4.2,1.2-6.2c-0.1-0.1-0.2-0.2-0.4-0.3c0.1-0.1,0.2-0.2,0.3-0.4c-0.7-0.5-0.6-0.8,0.1-1c0.1-0.8-1.8-1.2-0.7-2.1c-1-0.7-2-1.6-2.8-1.4c-1,0.3-2.2-0.8-3.1,0.5c-0.1,0.1-0.2,0.2-0.3,0.4c-0.1,0.1-0.2,0.2-0.3,0.4c-1,0.2-1.8,1.6-2.8,2.4c0.2,0.2,0.5,0.3,0.7,0.5c-1.6,1.5-1.1,4.4-3.5,5.6c0.2,0.3,0.7,0.5,0.5,0.9c-1.1-0.2-1.9,2.2-1.4,2.8c-2.7,2.3-2.4,6.1-5.7,9.5c0.1,0.7-0.5,1.6-1.2,2.4c0.1,0.1,0.2,0.2,0.4,0.3c-0.3,0.5-0.7,1-1,1.4c-0.1,0.1-0.2,0.2-0.3,0.4c-2.4,5.7-6.9,11.7-10.1,18.8c-0.3,0.9-2.1,2.1-1.4,2.8c-2,4-5.7,9-6.2,11.8c-0.4-0.3-0.2-0.9-0.7-0.5c-0.5,2.9-2.7,4.9-3.1,8.1c0.1,0.1,0.2,0.2,0.4,0.3c0.4,5.2-1.8,7.3,3.5,11.1c2.1,1.1,4.5-4,5.8-1.3c-0.1,0.1-0.2,0.2-0.3,0.4c1.5,0.6,2.7,0,3.8-1.6c0.3-0.5,0.7-0.7,1.1-0.8c-0.5-1.5,1-1.3,0.2-2.6c1.4-1.3,2.7-2.8,4.1-4.2c9.2-3.1,18.6-4.7,28.1-6c0.1,0.1,0.2,0.2,0.4,0.3c0.9,0.1,1.5-1.1,2.6,0.2c1.8-1.4,5.3-1.6,6.6-0.2c2.3-1.3,3.1-0.3,5.5-0.9c2.1,0.2,4.2-0.2,6.3-0.4c0.6,0.3,1-0.5,1.5-0.6c0.1,0.1,0.2,0.2,0.4,0.3c1.8-0.9,3.8-0.3,5.5-0.9c0.9,0.1,1.7,0,2.5-0.4c0.9,0.3,3.4,0.6,3-1.1c0.4-0.7,1-0.5,1.4-1.2c0.3-0.5,0.7-1,1-1.4c0.6-0.8,1.2-1.7,1.8-2.5c0.9-1.2,1.9-2.4,1.3-3.4C97.4,154.7,96.1,154.1,96.6,153.1z M43.5,131.1c-0.1,0.6-0.3,0.8,0.2,1C43.2,131.8,43.4,131.7,43.5,131.1z M44.6,132.4C44.6,132.4,44.6,132.4,44.6,132.4C44.6,132.4,44.6,132.4,44.6,132.4L44.6,132.4z M44.6,132.4c-0.2-0.1-0.3-0.1-0.5-0.2C44.2,132.3,44.4,132.3,44.6,132.4z M44.1,132.2c-0.1,0-0.2-0.1-0.3-0.1C43.8,132.1,43.9,132.2,44.1,132.2z M60.1,144.7C60,144.7,60,144.6,60.1,144.7C60,144.6,60,144.7,60.1,144.7z M60.2,144.7c0,0,0.1,0.1,0.1,0.1C60.2,144.8,60.2,144.8,60.2,144.7z M144.2,109.3c0,0,0.1,0.1,0.1,0.1C144.3,109.3,144.3,109.3,144.2,109.3z M144.9,109.6c0.1,0,0.1,0.1,0.2,0.1C145,109.6,144.9,109.6,144.9,109.6z M61.1,143.5C61.1,143.5,61.1,143.5,61.1,143.5C61.1,143.5,61.1,143.5,61.1,143.5z M42.5,136.3c0.9-1.8,0.3-2.6,2.2-3.8C42.8,133.7,43.4,134.5,42.5,136.3z"></path></svg>