<svg viewBox="0 0 16 16" fill="none" xmlns="http://www.w3.org/2000/svg">
<path d="M14.2063 12.6701L14.2063 12.6702C14.3495 12.8196 14.3898 13.04 14.3086 13.2305C14.2274 13.4209 14.0404 13.5444 13.8334 13.5444H10.1215C9.88885 14.4997 9.02624 15.2111 8.00003 15.2111C6.97386 15.2111 6.11119 14.4997 5.87852 13.5444H2.1667C1.95969 13.5444 1.77266 13.4209 1.69144 13.2305C1.61022 13.04 1.65049 12.8196 1.79377 12.6701M14.2063 12.6701L1.79377 12.6701C1.79377 12.6701 1.79377 12.6701 1.79377 12.6701M14.2063 12.6701C13.045 11.4591 12.4056 9.86842 12.4056 8.19058V6.86108C12.4056 4.90228 11.1207 3.23866 9.35003 2.66734V2.13886C9.35003 1.39438 8.74451 0.788855 8.00003 0.788855C7.25555 0.788855 6.65003 1.39438 6.65003 2.13886V2.66734C4.87931 3.23866 3.59448 4.90225 3.59448 6.86108V8.19058C3.59448 9.86845 2.95506 11.4591 1.79377 12.6701M14.2063 12.6701H1.79377M7.68337 2.13886C7.68337 1.96433 7.82551 1.82219 8.00003 1.82219C8.17455 1.82219 8.3167 1.96433 8.3167 2.13886V2.46698C8.21215 2.45945 8.10656 2.45552 8.00003 2.45552C7.89351 2.45552 7.78792 2.45945 7.68337 2.46698V2.13886ZM8.00003 14.1777C7.55195 14.1777 7.16268 13.9199 6.97304 13.5444H9.02703C8.83738 13.9199 8.44811 14.1777 8.00003 14.1777ZM3.26088 12.5111C4.14854 11.2536 4.62781 9.75447 4.62781 8.19058V6.86108C4.62781 5.00172 6.14068 3.48886 8.00003 3.48886C9.85939 3.48886 11.3723 5.00172 11.3723 6.86108V8.19058C11.3723 9.75447 11.8515 11.2536 12.7392 12.5111H3.26088Z" fill="" stroke="" stroke-width="0.2"/>
<path d="M13.3156 6.86112C13.3156 7.14646 13.5469 7.37778 13.8322 7.37778C14.1176 7.37778 14.3489 7.14646 14.3489 6.86112C14.3489 5.16515 13.6883 3.57019 12.489 2.37096C12.2873 2.16922 11.9601 2.16918 11.7584 2.37096C11.5566 2.57274 11.5566 2.89986 11.7584 3.10163C12.7627 4.10596 13.3156 5.44078 13.3156 6.86112Z" fill="" stroke="" stroke-width="0.2"/>
<path d="M2.16667 7.37777C2.45201 7.37777 2.68333 7.14644 2.68333 6.8611L4.24054 2.37097C4.03879 2.16919 3.71164 2.1692 3.50987 2.37097C2.31065 3.5702 1.65 5.16513 1.65 6.8611C1.65 7.14644 1.88133 7.37777 2.16667 7.37777Z" fill="" stroke="" stroke-width="0.2"/>
</svg>
