<?xml version="1.0" standalone="no"?>
<!DOCTYPE svg PUBLIC "-//W3C//DTD SVG 20010904//EN"
 "http://www.w3.org/TR/2001/REC-SVG-20010904/DTD/svg10.dtd">
<svg version="1.0" xmlns="http://www.w3.org/2000/svg"
 width="100.000000pt" height="100.000000pt" viewBox="0 0 100.000000 100.000000"
 preserveAspectRatio="xMidYMid meet">

<g transform="translate(0.000000,100.000000) scale(0.100000,-0.100000)"
fill="#000000" stroke="none">
<path d="M285 945 c-148 -30 -273 -54 -277 -54 -5 -1 -8 -176 -8 -390 l0 -389
23 -5 c112 -28 562 -106 569 -99 4 4 7 228 6 498 -3 481 -3 489 -23 491 -11 0
-141 -23 -290 -52z m83 -274 c99 -51 118 -227 33 -313 -49 -48 -109 -59 -173
-30 -66 29 -93 78 -93 167 0 92 24 141 85 173 54 27 99 28 148 3z"/>
<path d="M257 609 c-70 -41 -57 -204 17 -223 71 -18 122 68 96 163 -16 60 -66
87 -113 60z"/>
<path d="M640 656 c0 -173 -4 -172 190 -55 l151 91 -3 41 -3 42 -167 3 -168 2
0 -124z"/>
<path d="M826 550 c-120 -71 -153 -87 -168 -79 -17 9 -18 3 -18 -111 0 -111 1
-120 19 -120 14 0 20 -10 24 -42 6 -45 28 -81 71 -112 39 -29 133 -29 172 0
52 39 69 71 67 127 -2 29 -6 136 -10 239 l-8 188 -149 -90z m98 -249 c26 -27
31 -39 31 -81 0 -43 -5 -54 -33 -82 -28 -28 -39 -33 -82 -33 -43 0 -54 5 -82
33 -28 28 -33 39 -33 81 0 52 25 92 70 112 37 16 96 3 129 -30z"/>
<path d="M820 250 l0 -70 50 0 c43 0 50 3 50 20 0 16 -7 20 -30 20 -29 0 -30
1 -30 50 0 43 -3 50 -20 50 -18 0 -20 -7 -20 -70z"/>
</g>
</svg>
