<svg width="48" height="48" viewBox="0 0 48 48" fill="none" xmlns="http://www.w3.org/2000/svg">
<path d="M41.2498 9.87811V43.2C41.2498 45.4368 39.4365 47.25 37.1998 47.25H10.8C8.56325 47.25 6.75 45.4368 6.75 43.2V4.8C6.75 2.56325 8.56325 0.75 10.8 0.75H31.3118L41.2498 9.87811Z" fill="white" stroke="#D4D4D4" stroke-width="1.5"/>
<mask id="path-2-inside-1_532_22958" fill="white">
<path d="M30 1H41V11H31.2C30.5373 11 30 10.4627 30 9.8V1Z"/>
</mask>
<path d="M30 1H41H30ZM41 12.5H31.2C29.7088 12.5 28.5 11.2912 28.5 9.8L31.5 9.5H41V12.5ZM31.2 12.5C29.7088 12.5 28.5 11.2912 28.5 9.8V1H31.5V9.5L31.2 12.5ZM41 1V11V1Z" fill="#D4D4D4" mask="url(#path-2-inside-1_532_22958)"/>
<rect x="1.2002" y="24" width="27.8" height="15.2" rx="2.4" fill="#E14141"/>
<path d="M4.97966 35.5996V27.1996H7.96766C8.61166 27.1996 9.15566 27.2956 9.59966 27.4876C10.0437 27.6796 10.3797 27.9756 10.6077 28.3756C10.8397 28.7756 10.9557 29.2876 10.9557 29.9116C10.9557 30.5436 10.8417 31.0656 10.6137 31.4776C10.3857 31.8856 10.0517 32.1896 9.61166 32.3896C9.17166 32.5856 8.63566 32.6836 8.00366 32.6836H6.51566V35.5996H4.97966ZM6.51566 31.3996H7.82366C8.34766 31.3996 8.73966 31.2816 8.99966 31.0456C9.26366 30.8096 9.39566 30.4396 9.39566 29.9356C9.39566 29.4316 9.26166 29.0636 8.99366 28.8316C8.72966 28.5996 8.32766 28.4836 7.78766 28.4836H6.51566V31.3996ZM12.1281 35.5996V27.1996H15.2721C16.0721 27.1996 16.7841 27.3676 17.4081 27.7036C18.0321 28.0356 18.5221 28.5156 18.8781 29.1436C19.2341 29.7676 19.4121 30.5196 19.4121 31.3996C19.4121 32.2796 19.2341 33.0336 18.8781 33.6616C18.5221 34.2856 18.0321 34.7656 17.4081 35.1016C16.7841 35.4336 16.0721 35.5996 15.2721 35.5996H12.1281ZM13.6641 34.2316H15.2721C15.8161 34.2316 16.2701 34.1176 16.6341 33.8896C16.9981 33.6616 17.2721 33.3356 17.4561 32.9116C17.6401 32.4876 17.7321 31.9836 17.7321 31.3996C17.7321 30.8156 17.6401 30.3116 17.4561 29.8876C17.2721 29.4636 16.9981 29.1376 16.6341 28.9096C16.2701 28.6816 15.8161 28.5676 15.2721 28.5676H13.6641V34.2316ZM20.7648 35.5996V27.1996H25.9368V28.6876H22.3008V30.4756H25.1088V31.9636H22.3008V35.5996H20.7648Z" fill="white"/>
</svg>
