<?xml version="1.0" standalone="no"?>
<!DOCTYPE svg PUBLIC "-//W3C//DTD SVG 20010904//EN"
 "http://www.w3.org/TR/2001/REC-SVG-20010904/DTD/svg10.dtd">
<svg version="1.0" xmlns="http://www.w3.org/2000/svg"
 width="50.000000pt" height="50.000000pt" viewBox="0 0 50.000000 50.000000"
 preserveAspectRatio="xMidYMid meet">

<g transform="translate(0.000000,50.000000) scale(0.100000,-0.100000)"
fill="#000000" stroke="none">
<path d="M208 435 c-15 -8 -30 -25 -34 -37 -11 -35 -5 -108 12 -140 25 -48 15
-80 -31 -101 -47 -22 -85 -55 -85 -74 0 -10 37 -13 180 -13 143 0 180 3 180
13 0 19 -38 52 -85 74 -47 21 -56 54 -31 105 16 32 22 125 8 143 -11 16 -60
45 -74 45 -7 -1 -25 -7 -40 -15z"/>
<path d="M96 379 c-31 -25 -35 -79 -9 -133 13 -29 14 -38 3 -51 -7 -8 -18 -15
-25 -15 -18 0 -65 -47 -65 -65 0 -23 52 -19 68 5 6 11 34 31 62 45 54 28 63
51 35 92 -9 12 -15 46 -16 82 -2 68 -10 74 -53 40z"/>
<path d="M350 343 c-1 -32 -7 -69 -15 -83 -27 -47 -19 -67 35 -95 28 -14 56
-34 62 -45 17 -27 68 -28 68 -1 0 20 -44 61 -65 61 -7 0 -18 7 -25 15 -11 13
-10 22 3 51 10 19 17 52 17 74 0 31 -5 43 -29 59 -44 32 -51 27 -51 -36z"/>
</g>
</svg>
