<?xml version="1.0" encoding="UTF-8"?><svg id="Layer_2" xmlns="http://www.w3.org/2000/svg" viewBox="0 0 9.59 15.88"><g id="Layer_1-2"><path d="m8.33,14.05h-.13c.15-.19.31-.38.43-.59.97-1.65,1.38-3.35.38-5.15-.41-.73-.81-1.47-1.26-2.17-.73-1.11-1.49-2.2-2.24-3.29.83-.97.94-1.84.33-2.46-.49-.5-1.43-.54-1.92-.09-.6.55-.52,1.59.2,2.57-.55.82-1.11,1.64-1.65,2.44.15.35.28.64.41.93.31.68.63,1.36.92,2.04.05.11.05.33-.06.41-.12.08-.32-.01-.43-.09-.11-.09-.17-.26-.23-.4-.33-.71-.65-1.42-1.02-2.24-.57.9-1.09,1.69-1.57,2.5C-.02,9.32-.09,10.22.09,11.17c.21,1.08.65,2.05,1.38,2.88h-.16c-.3,0-.54.25-.54.54v.74c0,.3.25.54.54.54h7.02c.3,0,.54-.25.54-.54v-.74c0-.3-.25-.54-.54-.54Z" fill="#4A4A4A"/></g></svg>