<?xml version="1.0" encoding="UTF-8"?>
<svg id="Layer_2" data-name="Layer 2" xmlns="http://www.w3.org/2000/svg" viewBox="0 0 243.84 243.84">
  <defs>
    <style>
      .cls-1 {
        fill: #fff;
      }

      .cls-2 {
        fill: #00a651;
      }
    </style>
  </defs>
  <g id="Layer_1-2" data-name="Layer 1">
    <g>
      <circle class="cls-2" cx="121.92" cy="121.92" r="121.92"/>
      <path class="cls-1" d="M117.56,156.39c-2.82,0-5.65,.01-8.47,0-3.47-.02-5.7-2.26-5.73-5.74-.06-7,.17-13.97,1.38-20.89,1.79-10.28,7.35-17.97,15.9-23.73,3.71-2.5,7.39-5.08,10.81-7.95,4.07-3.41,6.94-7.65,7.79-13.1,1.46-9.31-4.61-17.91-13.94-19.47-7.06-1.18-13.37,.3-18.51,5.53-2.21,2.25-3.6,4.99-4.38,8.05-.85,3.37-2.61,4.72-6.03,4.72-6.23,0-12.46-.14-18.69,.05-4.16,.13-6.56-3.35-5.96-7.14,1.55-9.9,5.66-18.32,13.18-25.01,5.65-5.03,12.28-8.21,19.55-9.99,14.44-3.53,28.72-2.95,42.6,2.57,9.71,3.87,17.26,10.31,21.71,19.96,3,6.5,3.74,13.4,3.26,20.48-.99,14.62-9.25,24.47-20.97,32.09-3.34,2.17-6.7,4.34-9.8,6.82-5.64,4.52-8.52,10.63-9.15,17.77-.26,2.94-.27,5.9-.31,8.86-.06,3.91-2.19,6.1-6.07,6.1-2.73,0-5.47,0-8.2,0Z"/>
      <path class="cls-1" d="M118.14,204.31c-10.06,0-17.97-7.94-17.94-18.01,.03-9.95,8-17.8,18.04-17.78,9.74,.02,17.97,8.22,17.94,17.87-.03,9.73-8.29,17.92-18.04,17.92Z"/>
    </g>
  </g>
</svg>