<svg viewBox="0 0 48 48" fill="none" xmlns="http://www.w3.org/2000/svg">
<g id="icon-park-outline:quote">
<path id="Vector" fill-rule="evenodd" clip-rule="evenodd" d="M18.8529 9.11607C11.3229 13.9521 7.1396 19.5811 6.30293 26.0031C4.99993 36.0001 13.9399 40.8931 18.4699 36.4971C22.9999 32.1011 20.2849 26.5201 17.0049 24.9941C13.7249 23.4681 11.7189 24.0001 12.0689 21.9611C12.4189 19.9221 17.0849 14.2711 21.1849 11.6391C21.33 11.5154 21.4225 11.3411 21.4437 11.1516C21.4649 10.9622 21.4131 10.7717 21.2989 10.6191L20.2849 9.30007C19.8449 8.72807 19.4229 8.75007 18.8529 9.11507M38.6789 9.11607C31.1489 13.9521 26.9656 19.5811 26.1289 26.0031C24.8249 36.0001 33.7649 40.8931 38.2949 36.4971C42.8249 32.1011 40.1099 26.5201 36.8289 24.9941C33.5479 23.4681 31.5429 24.0001 31.8929 21.9611C32.2429 19.9221 36.9099 14.2711 41.0099 11.6391C41.1549 11.5152 41.2472 11.3409 41.2682 11.1514C41.2892 10.962 41.2372 10.7716 41.1229 10.6191L40.1099 9.30007C39.6699 8.72807 39.2479 8.75007 38.6789 9.11507" fill=""/>
</g>
</svg>
