<?xml version="1.0" encoding="UTF-8"?>
<svg id="Layer_2" data-name="Layer 2" xmlns="http://www.w3.org/2000/svg" viewBox="0 0 243.84 243.84">
  <defs>
    <style>
      .cls-1 {
        fill: #fff;
      }

      .cls-2 {
        fill: #00a651;
      }
    </style>
  </defs>
  <g id="Layer_1-2" data-name="Layer 1">
    <circle class="cls-2" cx="121.92" cy="121.92" r="121.92"/>
    <path class="cls-1" d="M105.38,119.77c-16.66-11.89-32.07-22.89-48.04-34.28,16.07-11.47,31.47-22.47,48.04-34.3,0,5.26,.28,9.26-.06,13.2-.56,6.32,2.09,8.45,8.3,8.2,17.03-.68,32.84,3.12,46.76,13.55,36.1,27.03,34.27,84.98-2.16,106.53,3.19-8.38,8.08-17.56,10.16-27.34,7.13-33.63-21.63-67.59-55.94-67.17-4.88,.06-7.2,1.86-7.06,6.82,.12,4.44,.03,8.88,.03,14.81Z"/>
  </g>
</svg>