<?xml version="1.0" encoding="UTF-8"?>
<svg xmlns="http://www.w3.org/2000/svg" width="100%" height="100%" viewBox="0 0 300 300" fill="#000000"><path d="M290,56.7l-90.5-37l14.2,24.4c-10.5,0.4-27.1,0.9-47.7,1.6c-9,0.3-18.7,0.6-29,1c-11.1,0.4-22.7,2.1-34.3,5.6c-5.8,1.7-11.5,4-17.1,6.5c-5.6,2.6-11.1,5.6-16.3,9c-5.2,3.4-10.3,7.2-15,11.3c-4.7,4.2-9.2,8.7-13.3,13.4c-4.1,4.8-7.8,9.9-11.2,15.1c-3.3,5.3-6.2,10.8-8.8,16.4c-5,11.2-8.3,22.9-9.8,34.4c-0.5,2.9-0.6,5.7-0.9,8.6c-0.1,2.8-0.3,5.8-0.3,8.5c0,1.4,0,2.7,0,4c0,1.5,0.1,2.7,0.1,4.1c0.1,2.6,0.2,5.2,0.3,7.8c0.3,10.3,0.7,20,1,29c1.2,35.9,2,59.8,2,59.8s0.8-23.9,2-59.8c0.3-9,0.6-18.7,1-29c0.1-2.6,0.2-5.2,0.3-7.8c0.1-1.3,0.1-2.7,0.2-3.9c0.1-1.3,0.2-2.7,0.2-4c0.1-2.7,0.5-5.2,0.8-7.9c0.5-2.6,0.8-5.3,1.4-8c2.2-10.6,6-21.2,11.2-31.2c2.7-5,5.7-9.8,9-14.4c3.4-4.6,7.1-8.9,11-13c4-4,8.3-7.8,12.7-11.2c4.5-3.4,9.2-6.4,14-9.1c4.8-2.7,9.8-4.9,14.8-6.9c5.1-1.8,10.1-3.5,15.2-4.6c10.2-2.3,20.2-3.1,29.7-2.8c10.3,0.3,20,0.7,29,1c20.6,0.7,37.3,1.3,47.7,1.6l-14.2,24.4L290,56.7z"></path></svg>