<svg viewBox="0 0 20 20" fill="none" xmlns="http://www.w3.org/2000/svg">
<path d="M16.7857 15.6085L14.0831 12.9059C14.9022 11.8337 15.3514 10.5331 15.3516 9.16075C15.3516 7.5069 14.7075 5.95192 13.5378 4.78249C12.3684 3.61306 10.8136 2.96893 9.15957 2.96893C7.50572 2.96893 5.95074 3.61306 4.78131 4.78249C2.36717 7.19684 2.36717 11.1251 4.78131 13.539C5.95074 14.7086 7.50572 15.3528 9.15957 15.3528C10.5319 15.3526 11.8325 14.9034 12.9047 14.0843L15.6073 16.7869C15.7699 16.9496 15.9833 17.031 16.1965 17.031C16.4097 17.031 16.6231 16.9496 16.7857 16.7869C17.1112 16.4616 17.1112 15.9338 16.7857 15.6085ZM5.9597 12.3606C4.19537 10.5963 4.19558 7.7254 5.9597 5.96088C6.81439 5.10638 7.95087 4.6356 9.15957 4.6356C10.3685 4.6356 11.5047 5.10638 12.3594 5.96088C13.2141 6.81557 13.6849 7.95205 13.6849 9.16075C13.6849 10.3696 13.2141 11.5059 12.3594 12.3606C11.5047 13.2153 10.3685 13.6861 9.15957 13.6861C7.95087 13.6861 6.81439 13.2153 5.9597 12.3606Z" fill=""/>
</svg>
