<?xml version="1.0" standalone="no"?>
<!DOCTYPE svg PUBLIC "-//W3C//DTD SVG 20010904//EN"
 "http://www.w3.org/TR/2001/REC-SVG-20010904/DTD/svg10.dtd">
<svg version="1.0" xmlns="http://www.w3.org/2000/svg"
 width="100.000000pt" height="100.000000pt" viewBox="0 0 100.000000 100.000000"
 preserveAspectRatio="xMidYMid meet">

<g transform="translate(0.000000,100.000000) scale(0.100000,-0.100000)"
fill="#000000" stroke="none">
<path d="M361 764 c-20 -26 -21 -38 -21 -390 l0 -364 160 0 160 0 0 364 c0
451 14 416 -160 416 -116 0 -119 -1 -139 -26z m249 -69 l0 -45 -110 0 -110 0
0 45 0 45 110 0 110 0 0 -45z"/>
<path d="M138 634 c-15 -8 -32 -23 -38 -34 -6 -11 -10 -119 -10 -275 l0 -257
29 -29 c27 -27 35 -29 105 -29 l76 0 0 320 0 320 -67 0 c-40 -1 -79 -7 -95
-16z"/>
<path d="M700 330 l0 -320 76 0 c70 0 78 2 105 29 l29 29 0 257 c0 157 -4 264
-10 276 -18 32 -64 49 -135 49 l-65 0 0 -320z"/>
</g>
</svg>
