<svg viewBox="0 0 20 20" fill="none" xmlns="http://www.w3.org/2000/svg">
    <g transform="translate(-2.668,0)">
        <path d="M12.668 3C8.248 3 4.66797 6.58 4.66797 11H2.66797L5.66797 14L8.66797 11H6.66797C6.66797 7.686 9.35497 5 12.668 5C15.981 5 18.668 7.686 18.668 11C18.668 14.314 15.981 17 12.668 17C11.458 17 10.333 16.632 9.41797 16L8.66797 17.5C9.94397 18.304 11.268 19 12.668 19C17.088 19 20.668 15.42 20.668 11C20.668 6.58 17.088 3 12.668 3Z" 
                fill=""/>
        <path d="M12.668 8V12L15.668 13.5" 
                fill=""/>
    </g>
</svg>