<?xml version="1.0" encoding="UTF-8"?>
<svg id="Layer_2" data-name="Layer 2" xmlns="http://www.w3.org/2000/svg" viewBox="0 0 243.84 243.84">
  <defs>
    <style>
      .cls-1 {
        fill: #fff;
      }

      .cls-2 {
        fill: #00a651;
      }
    </style>
  </defs>
  <g id="Layer_1-2" data-name="Layer 1">
    <circle class="cls-2" cx="121.92" cy="121.92" r="121.92"/>
    <g>
      <path class="cls-1" d="M36.72,117.59c.28-.77,.52-1.55,.84-2.29,1.3-2.96,3.5-4.95,6.59-5.89,3.33-1.01,6.67-1.98,10.02-2.94,3.11-.89,5.7,.45,6.58,3.35,.83,2.74-.64,5.26-3.72,6.22-2.95,.92-5.93,1.77-8.9,2.61-.98,.27-1.42,.7-1.43,1.82-.06,4.28-.1,4.27,3.92,5.42,2.28,.65,4.57,1.3,6.83,2.03,3.59,1.16,5.83,3.61,6.92,7.23,1.16,3.85,2.5,7.65,3.64,11.52,.85,2.9,.12,5.63-1.6,8.02-1.96,2.75-4.05,5.41-6.15,8.06-.58,.73-.66,1.23-.14,2.03,2.43,3.69,2.41,3.7,6.59,2.22,2.08-.74,4.16-1.49,6.25-2.2,3.74-1.27,7.15-.7,10.3,1.75,2.67,2.07,5.42,4.03,8.19,5.95,3.2,2.22,4.9,5.2,4.82,9.11-.06,3.22-.16,6.43-.3,9.64-.04,.92,.24,1.34,1.15,1.67,4.12,1.48,4.11,1.52,6.6-2.07,1.33-1.91,2.6-3.86,3.97-5.74,2.13-2.93,5-4.4,8.67-4.34,3.71,.06,7.43,.06,11.14,0,3.61-.05,6.46,1.37,8.55,4.25,1.92,2.64,3.75,5.35,5.55,8.08,.57,.86,1.06,1.18,2.14,.79,5.06-1.83,4.02-.33,3.97-5.68-.03-3.09-.15-6.21,.16-9.27,.27-2.64,1.96-4.62,4.12-6.17,3.02-2.16,6.01-4.35,8.99-6.55,2.94-2.16,6.17-2.64,9.6-1.52,3.1,1.01,6.16,2.11,9.21,3.26,.89,.34,1.38,.18,1.96-.54,2.71-3.35,2.74-3.34,.22-6.67-1.44-1.9-2.93-3.76-4.33-5.69-2.26-3.09-2.7-6.43-1.42-10.05,1.15-3.28,2.21-6.59,3.23-9.91,1.11-3.6,3.36-6.06,6.96-7.19,3.11-.97,6.24-1.88,9.37-2.76,.96-.27,1.29-.73,1.31-1.74,.09-4.27,.13-4.28-3.86-5.46-2.33-.69-4.68-1.32-6.99-2.06-3.08-1-5.32-3.01-6.41-6.05-1.43-4-2.74-8.05-3.96-12.11-.95-3.17-.28-6.16,1.67-8.81,1.97-2.68,4.07-5.26,6.02-7.95,.31-.42,.36-1.38,.09-1.82-2.31-3.81-2.34-3.79-6.51-2.29-2.08,.74-4.17,1.47-6.25,2.19-3.81,1.31-7.26,.68-10.45-1.81-2.57-2.01-5.22-3.93-7.92-5.76-3.34-2.26-5.1-5.3-5.01-9.35,.07-3.1,.16-6.21,.3-9.31,.05-1.01-.17-1.56-1.26-1.93-4.04-1.39-4.03-1.44-6.46,2.07-1.35,1.96-2.66,3.95-4.07,5.87-2.11,2.87-4.95,4.3-8.55,4.24-3.71-.06-7.43-.06-11.14,0-3.67,.06-6.55-1.41-8.67-4.34-1.91-2.65-3.76-5.35-5.55-8.08-.56-.86-1.06-1.02-2.02-.69-5.16,1.79-4.1,.4-4.01,5.63,.04,2.27,.15,4.54,.16,6.82,.03,3.78-1.61,6.68-4.69,8.85-2.81,1.97-5.62,3.95-8.33,6.05-3.16,2.45-6.57,3.02-10.31,1.74-2.98-1.02-5.96-2.03-8.9-3.16-.98-.37-1.47-.14-2.08,.63-2.6,3.3-2.63,3.29-.17,6.53,1.41,1.85,2.86,3.67,4.24,5.55,1.89,2.58,1.51,5.61-.86,7.34-2.32,1.69-5.21,1.16-7.15-1.34-2.07-2.67-4.14-5.34-6.18-8.04-3.09-4.08-3.17-8.5-.21-12.76,.95-1.36,1.93-2.7,2.93-4.03,2.85-3.81,7.31-5.21,11.82-3.68,3.08,1.05,6.12,2.22,9.22,3.24,.54,.18,1.39,.03,1.88-.3,2.64-1.82,5.26-3.69,7.79-5.66,.54-.42,.98-1.31,.99-1.99,0-3.16-.21-6.32-.25-9.48-.06-4.91,2.56-8.56,7.23-10.19,1.67-.58,3.34-1.17,5.04-1.64,4.62-1.3,8.92,.26,11.65,4.2,1.77,2.55,3.54,5.1,5.23,7.7,.56,.86,1.19,1.11,2.18,1.09,3.1-.06,6.21,.04,9.31-.07,.68-.02,1.57-.48,1.98-1.02,1.84-2.49,3.53-5.1,5.29-7.65,2.75-3.98,6.97-5.55,11.62-4.26,1.91,.53,3.81,1.16,5.67,1.86,4.1,1.54,6.68,5.23,6.65,9.6-.02,3.27-.16,6.54-.31,9.81-.05,.99,.26,1.57,1.11,2.15,2.56,1.74,5.08,3.57,7.51,5.48,.82,.65,1.48,.7,2.39,.37,2.85-1.06,5.71-2.07,8.58-3.08,4.89-1.73,9.24-.41,12.34,3.76,.96,1.29,1.92,2.57,2.83,3.9,2.89,4.22,2.76,8.67-.36,12.77-1.88,2.47-3.83,4.89-5.64,7.4-.36,.5-.45,1.43-.27,2.04,.88,3.02,1.93,5.99,2.85,8.99,.27,.88,.66,1.35,1.61,1.6,2.88,.77,5.71,1.71,8.58,2.52,4.15,1.16,6.82,3.73,7.79,7.98,.03,.14,.18,.26,.27,.39v8.65c-.09,.13-.24,.25-.27,.39-.98,4.24-3.64,6.81-7.79,7.97-2.87,.8-5.7,1.76-8.58,2.52-.95,.25-1.34,.71-1.61,1.59-.92,3.01-1.87,6.01-2.91,8.97-.32,.9-.19,1.51,.38,2.23,1.97,2.47,3.89,4.97,5.78,7.5,2.91,3.88,3,8.34,.28,12.36-.93,1.38-1.93,2.7-2.93,4.03-3.1,4.16-7.46,5.49-12.34,3.77-2.97-1.04-5.92-2.13-8.92-3.09-.54-.17-1.38,0-1.87,.33-2.64,1.82-5.25,3.7-7.79,5.66-.51,.39-.97,1.21-.96,1.83,0,3.32,.23,6.65,.25,9.97,.03,4.37-2.53,8.06-6.63,9.61-1.86,.7-3.75,1.33-5.66,1.86-4.65,1.29-8.89-.28-11.63-4.23-1.77-2.55-3.45-5.16-5.29-7.65-.4-.55-1.29-1.02-1.97-1.04-3.16-.11-6.32-.11-9.47,0-.68,.02-1.56,.49-1.96,1.04-1.84,2.5-3.51,5.11-5.3,7.65-2.87,4.08-7.17,5.58-11.96,4.18-1.64-.48-3.26-1.05-4.88-1.62-4.53-1.6-7.15-5.3-7.09-10.13,.04-3.21,.25-6.43,.25-9.64,0-.62-.45-1.45-.96-1.84-2.5-1.93-5.11-3.7-7.62-5.62-.75-.57-1.34-.73-2.23-.39-2.99,1.13-6.01,2.21-9.04,3.25-4.49,1.54-8.96,.16-11.83-3.64-1-1.32-1.97-2.67-2.92-4.04-3-4.31-2.9-8.74,.28-12.89,1.85-2.42,3.68-4.86,5.59-7.23,.65-.81,.64-1.45,.3-2.38-1.03-2.91-1.95-5.87-2.84-8.83-.27-.89-.69-1.35-1.61-1.6-2.93-.79-5.82-1.71-8.74-2.56-4-1.16-6.6-3.68-7.61-7.76-.05-.2-.2-.37-.3-.56,0-2.88,0-5.77,0-8.65Z"/>
      <path class="cls-1" d="M120.01,156.68c15.02,.55,29.08-7.91,34.43-22.6,1.3-3.58,1.7-7.51,2.28-11.32,.48-3.13,2.49-5.21,5.29-5.02,2.94,.2,4.88,2.54,4.75,5.73-.83,21.21-16.18,38.85-37.1,42.63-24.62,4.45-48.35-12.68-52.05-37.58-3.57-24.04,12.49-46.47,36.52-50.76,10.5-1.87,20.48-.1,29.82,5.11,2,1.12,2.89,2.85,2.63,5.11-.24,2.07-1.46,3.42-3.41,4.09-1.65,.57-3.14,.07-4.6-.72-4.33-2.36-8.94-3.72-13.88-4.13-15.9-1.3-30.63,8.37-35.77,23.56-6.89,20.36,6.18,42.05,27.4,45.45,1.42,.23,2.86,.35,3.67,.45Z"/>
      <path class="cls-1" d="M122.59,139.84c-4.74-4.76-9.51-9.55-14.29-14.34-1.8-1.81-3.63-3.58-5.4-5.42-2.14-2.2-2.18-5.3-.17-7.27,2.01-1.96,4.98-1.94,7.14,.17,3.92,3.84,7.78,7.75,11.67,11.62,.35,.35,.72,.67,1.25,1.16,3.47-3.52,6.88-7,10.32-10.44,7.08-7.11,14.17-14.2,21.28-21.29,1.91-1.9,4.15-2.33,6.2-1.28,1.95,.99,3.05,3.01,2.57,5.27-.22,1.03-.76,2.14-1.49,2.88-12.86,12.94-25.77,25.82-38.68,38.71-.07,.07-.18,.11-.4,.23Z"/>
    </g>
  </g>
</svg>