<?xml version="1.0" encoding="UTF-8"?>
<svg id="Layer_2" data-name="Layer 2" xmlns="http://www.w3.org/2000/svg" viewBox="0 0 243.84 243.84">
  <defs>
    <style>
      .cls-1 {
        fill: #fff;
      }

      .cls-2 {
        fill: #00a651;
      }
    </style>
  </defs>
  <g id="Layer_1-2" data-name="Layer 1">
    <g>
      <circle class="cls-2" cx="121.92" cy="121.92" r="121.92"/>
      <g>
        <path class="cls-1" d="M84.52,42.24c1.07,.21,2.93,.57,4.78,.94,3.46,.7,4.92,.03,6.52-3.1,.81-1.59,1.46-3.26,2.31-4.82,1.38-2.55,2.98-3.07,5.62-1.82,1.72,.81,3.33,1.85,5.03,2.7,2.66,1.34,3.94,1.15,6.09-.91,1.46-1.4,2.76-2.96,4.25-4.33,1.99-1.84,3.63-1.83,5.65,0,1.23,1.12,2.32,2.39,3.46,3.6,2.75,2.91,4.15,3.14,7.67,1.23,1.36-.74,2.67-1.57,4.06-2.25,2.71-1.31,4.34-.8,5.77,1.81,.82,1.51,1.46,3.12,2.24,4.66,1.67,3.29,3.02,3.9,6.62,3.21,1.92-.37,3.85-.76,5.8-.89,2.13-.15,3.21,.74,3.64,2.85,.38,1.86,.56,3.76,.79,5.64,.42,3.42,1.51,4.59,4.87,5.1,1.82,.28,3.66,.42,5.47,.75,2.7,.49,3.69,1.81,3.34,4.51-.25,1.94-.68,3.86-1.03,5.79-.47,2.58,.12,4.07,2.41,5.38,1.59,.91,3.32,1.58,4.97,2.4,3.38,1.69,3.91,3.23,2.21,6.57-.83,1.64-1.75,3.24-2.63,4.86-1.07,1.98-.8,3.77,.81,5.35,1.44,1.42,2.96,2.76,4.35,4.23,2.23,2.35,2.22,4.01-.02,6.32-1.2,1.24-2.54,2.34-3.75,3.56-2.44,2.45-2.62,3.59-1.07,6.64,.81,1.59,1.78,3.1,2.54,4.71,1.32,2.79,.84,4.26-1.85,5.74-1.82,1-3.77,1.77-5.58,2.77-2.22,1.23-2.85,2.69-2.41,5.2,.35,1.99,.79,3.96,1.05,5.96,.34,2.62-.46,3.81-3.02,4.36-1.97,.43-4.01,.51-5.98,.89-3.27,.62-4.28,1.8-4.68,5.11-.21,1.71-.38,3.43-.69,5.12-.53,2.88-2.08,3.89-4.98,3.36-1.93-.35-3.85-.74-5.78-1.06-2.09-.35-3.78,.29-4.78,2.25-.92,1.8-1.72,3.65-2.65,5.45-1.53,2.96-3.1,3.51-6.09,2.07-1.76-.85-3.44-1.88-5.18-2.79-2.05-1.08-3.91-.74-5.51,.92-1.41,1.45-2.74,2.98-4.2,4.38-2.05,1.98-3.84,2.02-5.95,.09-1.35-1.25-2.5-2.71-3.8-4.02-2.3-2.32-3.78-2.55-6.68-1.05-1.69,.87-3.3,1.91-5.02,2.69-2.43,1.1-3.91,.61-5.22-1.72-.93-1.65-1.62-3.44-2.48-5.13-1.46-2.86-2.74-3.53-5.88-3.05-1.82,.28-3.62,.7-5.43,.99-2.72,.45-4.22-.57-4.73-3.27-.3-1.57-.49-3.17-.67-4.76-.46-4.14-1.81-5.43-6-5.81-1.65-.15-3.31-.34-4.93-.72-2.27-.53-3.03-1.51-2.82-3.82,.19-2.12,.66-4.22,1.03-6.33,.47-2.69-.16-4.16-2.57-5.46-1.83-.99-3.78-1.75-5.59-2.75-2.46-1.36-2.92-2.77-1.75-5.33,.87-1.89,1.93-3.68,2.92-5.51,1.15-2.12,.84-4-.88-5.66-1.37-1.32-2.82-2.57-4.14-3.93-2.37-2.45-2.35-4.14,.06-6.59,1.29-1.31,2.71-2.5,3.99-3.83,1.97-2.04,2.16-3.23,.92-5.78-.83-1.71-1.87-3.31-2.71-5.02-1.43-2.92-.91-4.48,1.96-5.97,1.63-.85,3.36-1.52,4.98-2.38,2.65-1.4,3.31-2.9,2.76-5.87-.34-1.81-.72-3.62-.94-5.44-.36-2.93,.61-4.18,3.54-4.67,1.76-.29,3.54-.44,5.3-.71,3.24-.5,4.4-1.72,4.81-4.97,.23-1.83,.41-3.66,.73-5.47,.44-2.4,1.51-3.21,4.76-3.18Zm37.42,104.08c26.43-.11,47.58-21.39,47.47-47.77-.11-25.9-21.57-47.32-47.33-47.24-26.51,.09-47.74,21.39-47.65,47.82,.09,26.03,21.49,47.28,47.52,47.18Z"/>
        <path class="cls-1" d="M84.12,207.14c3.7-13.44,7.39-26.88,11.14-40.53,4,4.21,8.16,3.36,12.42,.86,3.64-2.13,3.64-2.1,6.48,1,2.08,2.27,4.35,4.26,7.91,4.37-.88,3.19-1.72,6.19-2.55,9.21-2.77,10.07-5.54,20.13-8.31,30.2-.08,.29-.12,.6-.26,.85-.25,.43-.56,.81-.85,1.22-.39-.3-.91-.53-1.16-.93-2.4-3.83-4.75-7.68-7.12-11.53-1.4-2.27-1.4-2.25-3.81-.98-3.84,2.02-7.67,4.04-11.53,6.03-.58,.3-1.26,.4-1.89,.59-.16-.12-.32-.24-.49-.37Z"/>
        <path class="cls-1" d="M158.96,198.69c-.84-.38-1.7-.73-2.52-1.16-3.8-1.97-7.61-3.89-11.35-5.97-1.32-.73-1.98-.46-2.7,.73-2.45,4.07-4.95,8.11-7.47,12.14-.26,.41-.75,.69-1.13,1.02-.29-.39-.74-.73-.86-1.17-2.87-10.28-5.7-20.57-8.54-30.86-.08-.27-.11-.56,.21-.54,2.66-2.4,5.33-4.8,8.13-7.33,1.22,.69,2.56,1.59,4.02,2.21,1.67,.72,3.41,1.45,5.18,1.71,2.9,.42,5.15-1,6.86-3.3,.45-.61,.87-1.25,1.53-2.18,3.19,11.63,6.3,22.95,9.41,34.28-.25,.14-.51,.28-.76,.41Z"/>
        <path class="cls-1" d="M121.87,60.28c21.39,.02,38.59,17.26,38.54,38.61-.05,21.32-17.35,38.49-38.74,38.44-21.06-.05-38.29-17.39-38.29-38.55,0-21.27,17.25-38.53,38.49-38.5Zm-3.39,60.12c6.66-12.91,14.12-24.89,27.65-31.65-1.71-3.85-3.41-7.68-5.22-11.73-9.94,8.1-17.5,17.78-22.97,29.25-.51-.62-.88-1.08-1.26-1.54-2.8-3.38-6.04-6.23-9.94-8.27-.49-.26-1.44-.46-1.71-.2-2.9,2.73-5.22,5.91-7.37,9.38,8.6,2.74,15.74,7.17,20.82,14.77Z"/>
      </g>
    </g>
  </g>
</svg>