<?xml version="1.0" encoding="UTF-8"?>
<svg version="1.1" xmlns="http://www.w3.org/2000/svg" width="100" height="100">
<path d="M0 0 C1 1 1 1 1.4375 3.6640625 C0.81670165 8.39764988 -1.57565531 10.25144235 -5 13.375 C-5.57234375 13.92027344 -6.1446875 14.46554688 -6.734375 15.02734375 C-8.14305539 16.36559012 -9.56982497 17.68474975 -11 19 C-9.68563965 19.01401855 -9.68563965 19.01401855 -8.34472656 19.02832031 C-5.03408646 19.07283459 -1.72464401 19.13466293 1.58544922 19.20751953 C3.00688244 19.23541592 4.42846176 19.25678304 5.85009766 19.27099609 C19.12829409 19.41155569 31.24643985 21.14650584 41 31 C46.8403804 38.40067811 48.39089629 45.67414833 48.375 54.9375 C48.37367065 56.32388672 48.37367065 56.32388672 48.37231445 57.73828125 C48.20747481 67.40441082 46.89045345 77.99843165 41 86 C37.875 86.375 37.875 86.375 35 86 C34.67 85.67 34.34 85.34 34 85 C34.31904658 80.05477801 35.02839005 75.76661914 36.5625 71.0625 C39.18544421 61.79737369 39.9714455 50.15008646 36 41.1875 C32.50012637 35.44335711 27.77059931 33.02614789 21.625 30.75 C10.83530638 28.5176496 -0.0345727 28.89867675 -11 29 C-10.14535156 29.80824219 -9.29070313 30.61648437 -8.41015625 31.44921875 C-7.2937458 32.5281028 -6.1778892 33.60756017 -5.0625 34.6875 C-4.49853516 35.21794922 -3.93457031 35.74839844 -3.35351562 36.29492188 C-0.25604027 39.31820621 1.89563101 41.43184954 2 46 C0.875 47.875 0.875 47.875 -1 49 C-5.85818238 48.76666944 -8.31850862 46.21057622 -11.51953125 42.87109375 C-12.02296555 42.36199966 -12.52639984 41.85290558 -13.04508972 41.3283844 C-14.64389465 39.70726789 -16.22819606 38.07277866 -17.8125 36.4375 C-18.89685713 35.33307117 -19.98213408 34.22954463 -21.06835938 33.12695312 C-23.72300912 30.42830552 -26.36474126 27.71758089 -29 25 C-26.71190182 19.58806874 -22.28148811 15.8340483 -18.20654297 11.72607422 C-16.75428169 10.25433911 -15.3247363 8.76266729 -13.89453125 7.26953125 C-12.97542969 6.34011719 -12.05632813 5.41070312 -11.109375 4.453125 C-10.27374023 3.59879883 -9.43810547 2.74447266 -8.57714844 1.86425781 C-5.45811742 -0.39198706 -3.76878623 -0.4682472 0 0 Z " fill="#000000" transform="translate(38,6)"/>
</svg>
