<?xml version="1.0" standalone="no"?>
<!DOCTYPE svg PUBLIC "-//W3C//DTD SVG 20010904//EN"
 "http://www.w3.org/TR/2001/REC-SVG-20010904/DTD/svg10.dtd">
<svg version="1.0" xmlns="http://www.w3.org/2000/svg"
 width="100.000000pt" height="100.000000pt" viewBox="0 0 100.000000 100.000000"
 preserveAspectRatio="xMidYMid meet">

<g transform="translate(0.000000,100.000000) scale(0.100000,-0.100000)"
fill="#000000" stroke="none">
<path d="M386 944 c-113 -27 -226 -114 -286 -220 -65 -113 -76 -272 -27 -393
l25 -62 -30 -106 c-19 -65 -26 -109 -20 -115 5 -5 50 1 117 18 l107 27 62 -22
c84 -31 184 -37 269 -17 92 22 141 49 213 118 338 324 27 883 -430 772z m10
-279 c29 -68 30 -73 2 -102 l-21 -23 29 -41 c29 -42 117 -109 143 -109 8 0 29
13 46 30 l30 29 58 -26 c62 -28 71 -48 41 -91 -63 -90 -214 -55 -348 80 -123
124 -146 212 -78 291 8 9 28 17 44 17 26 0 32 -7 54 -55z"/>
</g>
</svg>
