<svg viewBox="0 0 16 16" fill="none" xmlns="http://www.w3.org/2000/svg">
<g clip-path="url(#clip0_60_1653)">
<path d="M14.6211 7.68483V5.91638C14.6211 5.04755 13.9298 4.33754 13.0684 4.30655V3.22107C13.0684 2.65567 12.6084 2.19568 12.043 2.19568H9.21998L8.85544 1.18238C8.76248 0.923986 8.57434 0.717502 8.32566 0.600988C8.07699 0.484445 7.79791 0.472023 7.53989 0.565949L2.41719 2.43043C2.15943 2.52424 1.9538 2.71288 1.83813 2.96161C1.72247 3.21034 1.71072 3.48916 1.80509 3.74674L2.0109 4.30851C1.16905 4.36057 0.5 5.06164 0.5 5.91638V13.8851C0.5 14.7736 1.22284 15.4965 2.11133 15.4965H13.0098C13.8983 15.4965 14.6211 14.7736 14.6211 13.8851V12.0581C15.1173 11.9868 15.5 11.559 15.5 11.0433V8.69958C15.5 8.18393 15.1173 7.75613 14.6211 7.68483ZM14.6211 11.0433C14.6211 11.1241 14.5554 11.1898 14.4746 11.1898H12.1309C11.4039 11.1898 10.8125 10.5984 10.8125 9.87146C10.8125 9.14451 11.4039 8.5531 12.1309 8.5531H14.4746C14.5554 8.5531 14.6211 8.61881 14.6211 8.69958V11.0433ZM2.63035 3.4444C2.61216 3.39474 2.62549 3.35281 2.63507 3.33222C2.64465 3.31165 2.66812 3.27442 2.7178 3.25634L7.84048 1.39186C7.89022 1.37378 7.93215 1.38723 7.95274 1.39687C7.97334 1.40651 8.01052 1.43012 8.02842 1.47992L8.28594 2.19571H8.08789C7.52249 2.19571 7.0625 2.6557 7.0625 3.2211V4.30508H2.94567L2.63035 3.4444ZM12.1895 3.22107V4.30505H7.94141V3.22107C7.94141 3.14029 8.00712 3.07458 8.08789 3.07458H12.043C12.1237 3.07458 12.1895 3.14029 12.1895 3.22107ZM13.0098 14.6176H2.11133C1.70747 14.6176 1.37891 14.289 1.37891 13.8851V5.91638C1.37891 5.51252 1.70747 5.18396 2.11133 5.18396H13.0098C13.4136 5.18396 13.7422 5.51252 13.7422 5.91638V7.67419H12.1309C10.9193 7.67419 9.93359 8.65989 9.93359 9.87146C9.93359 11.083 10.9193 12.0687 12.1309 12.0687H13.7422V13.8851C13.7422 14.289 13.4136 14.6176 13.0098 14.6176Z" fill="" stroke="" stroke-width="0.25"/>
</g>
<defs>
<clipPath id="clip0_60_1653">
<rect width="16" height="16" fill="white"/>
</clipPath>
</defs>
</svg>
