<?xml version="1.0" encoding="UTF-8"?><svg id="Layer_2" xmlns="http://www.w3.org/2000/svg" viewBox="0 0 566.84 143.32"><g id="Layer_1-2"><g><path d="m125.03.06h-11.34c-10.58,0-20.04,6.57-23.73,16.49l-46.48,124.88h34.29l9.45-28.33h46.9l9.54,28.33h34.29L125.5,1.32l-.47-1.25Zm.14,86.22h-29.02l14.43-43.45,14.59,43.45Z" fill="#fff"/><path d="m206.71,50.32c4.03-5.79,9.76-8.61,17.52-8.61,6.05,0,10.82,1.45,14.2,4.31,3.38,2.86,5.6,7.51,6.6,13.83l.22,1.39h26.93l-.21-1.84c-1.51-13.12-6.41-23.28-14.59-30.2-8.16-6.9-19.56-10.4-33.89-10.4-10.31,0-19.45,2.38-27.16,7.09-7.73,4.72-13.72,11.61-17.82,20.49-4.05,8.79-6.11,19.32-6.11,31.28v8.04c.11,11.65,2.33,21.95,6.61,30.61,4.31,8.74,10.53,15.5,18.48,20.1,7.92,4.58,17.23,6.91,27.69,6.91,9.86,0,18.99-1.49,27.14-4.43,8.23-2.98,14.72-7.24,19.26-12.69l.38-.46v-49.33h-49.74v21.22h22.12v17.97c-3.61,3.25-9.62,4.89-17.87,4.89s-14.93-2.88-19.33-8.81c-4.46-6-6.72-15.1-6.72-27.05v-7.53c.05-11.86,2.16-20.87,6.27-26.77Z" fill="#fff"/><path d="m371.46,78.76c3.64-5.62,5.49-12.7,5.49-21.04,0-11.81-4.02-21.1-11.95-27.61-7.83-6.43-19.03-9.7-33.3-9.7h-23.76c-12,0-21.72,9.73-21.72,21.72v99.56h27.62v-43.19h16.7l22.12,43.19h28.76v-3.2l-24.9-47.04c6.56-3.23,11.58-7.5,14.95-12.7Zm-57.62-35.34h17.87c6.05,0,10.55,1.44,13.37,4.29,2.87,2.89,4.26,6.8,4.26,11.96s-1.47,8.83-4.49,11.63c-3.02,2.8-7.41,4.22-13.05,4.22h-17.95v-32.1Z" fill="#fff"/><path d="m417.57,90.57h46.67v-22.35h-46.67v-24.8h54.61v-23h-60.5c-12,0-21.72,9.73-21.72,21.72v99.56h82.39v-22.84h-54.77v-28.29Z" fill="#fff"/><path d="m512.07,118.86v-28.29h46.67v-22.35h-46.67v-24.8h54.61v-23h-60.5c-12,0-21.72,9.73-21.72,21.72v99.56h82.39v-22.84h-54.77Z" fill="#fff"/><g><path d="m32.19,141.45H0V32.28C0,14.5,14.41.08,32.19.08h0v141.36Z" fill="#fff"/><path d="m0,51.38c0-17.78,14.41-32.19,32.19-32.19V0S0,0,0,0v51.38Z" fill="#11ae4b"/></g></g></g></svg>