<svg width="111" height="28" viewBox="0 0 111 28" fill="none" xmlns="http://www.w3.org/2000/svg">
<g clip-path="url(#clip0_26_5202)">
<path d="M24.4806 0.0129814H22.2621C20.1933 0.0129814 18.3392 1.2981 17.6171 3.23227L8.51562 27.63H15.2295L17.0771 22.0937H26.2631L28.1303 27.63H34.8441L24.5782 0.25962L24.4871 0.0129814H24.4806ZM24.5066 16.8558H18.8271L21.6506 8.36625L24.5066 16.8558Z" fill="black"/>
<path d="M40.4788 9.8331C41.266 8.70376 42.3915 8.15206 43.9073 8.15206C45.0914 8.15206 46.0282 8.43765 46.6853 8.99583C47.3489 9.55401 47.7782 10.4627 47.9799 11.6959L48.0254 11.9685H53.3016L53.2625 11.605C52.9698 9.04126 52.0069 7.05517 50.4065 5.70515C48.8061 4.35512 46.5747 3.67362 43.7707 3.67362C41.754 3.67362 39.9649 4.14094 38.4556 5.0561C36.9398 5.97775 35.7687 7.32128 34.9685 9.06073C34.1748 10.7807 33.7715 12.8317 33.7715 15.1683V16.739C33.791 19.0172 34.2269 21.0292 35.0661 22.7167C35.9119 24.4237 37.1284 25.7478 38.6833 26.6435C40.2316 27.5392 42.0597 27.9935 44.109 27.9935C46.0412 27.9935 47.8303 27.7014 49.4242 27.1303C51.0376 26.5461 52.3062 25.7153 53.1975 24.6509L53.2755 24.56V14.9217H43.5365V19.0691H47.8693V22.5804C47.1602 23.2165 45.9827 23.5345 44.3692 23.5345C42.7558 23.5345 41.4482 22.9699 40.5829 21.8146C39.7112 20.6398 39.2688 18.8679 39.2688 16.5313V15.058C39.2818 12.7408 39.6917 10.9819 40.4984 9.82661L40.4788 9.8331Z" fill="black"/>
<path d="M72.7405 15.389C73.4561 14.2921 73.8139 12.9096 73.8139 11.2805C73.8139 8.97636 73.0267 7.15902 71.4719 5.88688C69.9365 4.62773 67.7441 3.99166 64.9532 3.99166H60.3016C57.953 3.99166 56.0469 5.89337 56.0469 8.23644V27.6885H61.4531V19.2508H64.7255L69.0582 27.6885H74.6922V27.0654L69.8129 17.8748C71.0945 17.2453 72.0834 16.408 72.7405 15.3955V15.389ZM61.4531 8.48308H64.9532C66.1372 8.48308 67.0155 8.76217 67.5684 9.32035C68.1279 9.88503 68.4012 10.6509 68.4012 11.6569C68.4012 12.663 68.1149 13.3834 67.5229 13.9286C66.9309 14.4738 66.0721 14.7529 64.9662 14.7529H61.4531V8.48308Z" fill="black"/>
<path d="M81.7695 17.6931H90.91V13.325H81.7695V8.47659H92.4649V3.98516H80.618C78.2694 3.98516 76.3633 5.88688 76.3633 8.22995V27.682H92.4974V23.223H81.7695V17.6996V17.6931Z" fill="black"/>
<path d="M100.271 23.223V17.6996H109.412V13.3315H100.271V8.48308H110.967V3.99166H99.1199C96.7714 3.99166 94.8652 5.89337 94.8652 8.23644V27.6885H110.999V23.2295H100.271V23.223Z" fill="black"/>
<path d="M6.30401 27.6365H0V6.30227C0 2.82986 2.82347 0.0194702 6.30401 0.0194702V27.6365Z" fill="black"/>
<path d="M0 10.0343C0 6.56189 2.82347 3.74502 6.30401 3.74502V0H0V10.0343Z" fill="#11AE4B"/>
</g>
<defs>
<clipPath id="clip0_26_5202">
<rect width="111" height="28" fill="white"/>
</clipPath>
</defs>
</svg>
