<svg width="318" height="80" viewBox="0 0 318 80" fill="none" xmlns="http://www.w3.org/2000/svg">
<g clip-path="url(#clip0_274_6494)">
<path d="M69.9454 0.0368652H63.607C57.6961 0.0368652 52.3986 3.70863 50.3354 9.23483L24.3312 78.9428H43.5137L48.7926 63.1245H75.0384L80.3731 78.9428H99.5555L70.2242 0.741548L69.964 0.0368652H69.9454ZM70.0197 48.1593H53.7927L61.8597 23.9033L70.0197 48.1593Z" fill="black"/>
<path d="M115.652 28.0944C117.902 24.8677 121.117 23.2914 125.448 23.2914C128.831 23.2914 131.508 24.1073 133.385 25.7022C135.281 27.297 136.508 29.8932 137.084 33.4166L137.214 34.1954H152.289L152.177 33.157C151.341 25.832 148.59 20.1574 144.017 16.3002C139.445 12.443 133.069 10.4958 125.058 10.4958C119.296 10.4958 114.184 11.831 109.872 14.4458C105.541 17.0791 102.195 20.9177 99.9087 25.8876C97.641 30.8018 96.4886 36.6618 96.4886 43.3378V47.8255C96.5443 54.3345 97.7897 60.0832 100.188 64.9048C102.604 69.7819 106.08 73.5649 110.522 76.124C114.946 78.6831 120.169 79.9812 126.024 79.9812C131.545 79.9812 136.657 79.1468 141.211 77.5149C145.82 75.8459 149.445 73.4722 151.991 70.4309L152.214 70.1713V42.6331H124.389V54.4829H136.768V64.5153C134.742 66.3327 131.378 67.2413 126.768 67.2413C122.158 67.2413 118.422 65.628 115.95 62.3271C113.459 58.9706 112.195 53.908 112.195 47.2321V43.0225C112.232 36.4022 113.403 31.3767 115.708 28.0758L115.652 28.0944Z" fill="black"/>
<path d="M207.829 43.9685C209.873 40.8346 210.896 36.8846 210.896 32.23C210.896 25.6468 208.647 20.4544 204.204 16.8197C199.817 13.2221 193.553 11.4048 185.579 11.4048H172.289C165.579 11.4048 160.133 16.8383 160.133 23.5327V79.1099H175.579V55.0024H184.929L197.308 79.1099H213.405V77.3297L199.464 51.071C203.126 49.2722 205.951 46.88 207.829 43.9871V43.9685ZM175.579 24.2374H185.579C188.962 24.2374 191.472 25.0348 193.052 26.6296C194.65 28.243 195.431 30.4312 195.431 33.3056C195.431 36.1799 194.613 38.2384 192.921 39.7961C191.23 41.3538 188.776 42.1512 185.616 42.1512H175.579V24.2374Z" fill="black"/>
<path d="M233.628 50.5515H259.744V38.0712H233.628V24.2186H264.187V11.386H230.338C223.628 11.386 218.182 16.8195 218.182 23.5139V79.0911H264.28V66.3512H233.628V50.57V50.5515Z" fill="black"/>
<path d="M286.492 66.3515V50.5703H312.607V38.09H286.492V24.2374H317.05V11.4048H283.202C276.492 11.4048 271.045 16.8383 271.045 23.5327V79.1099H317.143V66.37H286.492V66.3515Z" fill="black"/>
<path d="M18.0114 78.9618H-6.10352e-05V18.0068C-6.10352e-05 8.08558 8.06699 0.0559082 18.0114 0.0559082V78.9618Z" fill="black"/>
<path d="M0 28.6694C0 18.7483 8.06705 10.7 18.0115 10.7V0H0V28.6694Z" fill="#11AE4B"/>
</g>
<defs>
<clipPath id="clip0_274_6494">
<rect width="317.143" height="80" fill="white"/>
</clipPath>
</defs>
</svg>
