<?xml version="1.0" encoding="UTF-8"?><svg id="Layer_2" xmlns="http://www.w3.org/2000/svg" xmlns:xlink="http://www.w3.org/1999/xlink" viewBox="0 0 190.21 131"><defs><linearGradient id="linear-gradient" x1="132.16" y1="-9.91" x2="173.3" y2="61.34" gradientUnits="userSpaceOnUse"><stop offset="0" stop-color="#6abd45"/><stop offset=".42" stop-color="#2d9b47"/><stop offset="1" stop-color="#000"/></linearGradient><linearGradient id="linear-gradient-2" x1="43.56" y1=".92" x2="107.89" y2="112.34" xlink:href="#linear-gradient"/><linearGradient id="linear-gradient-3" x1="142.35" y1="89.28" x2="156.23" y2="113.32" xlink:href="#linear-gradient"/><linearGradient id="linear-gradient-4" x1="48.11" y1="38.81" x2="73.71" y2="83.15" xlink:href="#linear-gradient"/><linearGradient id="linear-gradient-5" x1="117.53" y1="45.65" x2="130.52" y2="68.15" xlink:href="#linear-gradient"/></defs><g id="Layer_1-2"><path d="m190.21,43.19c-2.65,3.97-5.38,7.9-7.92,11.94-1.89,3.01-4.14,3.53-7.1,1.65-3.36-2.14-6.72-4.3-10.16-6.32-2.56-1.51-4.48-3.4-2.71-6.4,1.85-3.13,4.47-1.94,6.9-.46.71.43,1.45.8,2.84,1.57-2.39-9.42-7.31-16.64-13.8-22.76-9.95-9.39-21.83-14.3-35.62-14.29-1.66,0-3.33,0-4.99.08-3,.16-6.21.04-6.21-3.84,0-3.74,3.19-3.96,6.17-4.18,23.96-1.79,50.89,10.8,62.55,42.19,2.77-3.15,5.21-7.75,10.05-3.16v4Z" fill="url(#linear-gradient)"/><path d="m109.11,25.09c23.12-6.31,43.41,4.54,49.29,26.05,7.41,27.11-17.38,52.74-44.72,46.14-3.16-.76-5.1-.56-7.54,2.17-17.26,19.29-38.78,26.16-63.51,18.49C17.91,110.28,3.94,92.37.47,66.79-3.79,35.36,21.35,4.31,52.97,1.02c23.18-2.41,41.5,6.17,56.14,24.06ZM23.04,60.6c-.02,15.69,9.21,29.3,23.67,34.93,14.65,5.71,30.86,1.82,41.53-9.79,2.05-2.23,2.6-3.94.96-6.89-6.67-11.94-6.6-24.19-.14-36.18,1.69-3.14,1.15-4.97-1.07-7.34-10.86-11.57-26.72-15.21-41.62-9.36-14.16,5.56-23.3,19.13-23.31,34.62Zm99.18-29.5c-16.62-.03-29.98,13.17-29.98,29.62,0,16.19,13.31,29.48,29.56,29.53,16.68.05,29.74-12.89,29.89-29.63.15-16.18-13.14-29.49-29.48-29.52Zm-25.8,57.29c-8.69,10.66-19.85,16.87-33.45,17.67-13.84.82-25.81-4.04-35.48-14.04-16.08-16.61-16.73-43.79-1.64-60.95,8.06-9.17,18.19-14.57,30.26-15.65,16.4-1.47,29.79,4.93,40.4,17.46,1.87-1.54,3.37-2.77,4.83-3.98-11.7-16.88-35.97-24.52-56.41-18.04C22.56,17.96,7.95,38.17,8.2,61.72c.23,22.45,15.81,42.71,37.78,49.13,20.2,5.91,44.41-2.06,55.31-18.39-1.48-1.24-2.98-2.49-4.87-4.07Z" fill="url(#linear-gradient-2)"/><path d="m125.09,113.31c18.49-1.59,32.86-10.13,42.44-26.28,2.26-3.81,3.72-8.13,5.19-12.35,1.01-2.9,1.92-5.69,5.68-4.56,3.5,1.05,2.83,3.74,2.08,6.55-6.45,24.33-27.96,42.39-53.17,44.51-.8.07-1.59.12-2.89.22,1.08,1.5,2.38,2.58,2.64,3.86.35,1.69.53,4.4-.41,5.11-1.13.86-4.16.84-5.22-.1-3.73-3.29-7.3-6.9-10.18-10.93-.91-1.27-.14-4.81,1.08-6.32,2.59-3.21,5.76-6.07,9.13-8.46,1.48-1.05,4.69-1.56,5.93-.67,2.49,1.78,1.51,4.38-.65,6.32-.74.66-1.53,1.26-2.29,1.89.21.4.43.8.64,1.21Z" fill="url(#linear-gradient-3)"/><path d="m56.83,82.72c-2.44-1.17-4.95-1.75-6.46-3.31-1.16-1.2-1.06-3.63-1.53-5.51,1.76-.43,3.53-1.24,5.27-1.19,2.21.06,4.53,1.47,6.57,1.07,1.43-.27,3.33-2.51,3.44-4,.11-1.47-1.55-3.29-2.81-4.58-.7-.71-2.16-.7-3.3-.95-5.26-1.19-8.53-4.61-9.59-9.68-1.11-5.31.61-10.04,5.31-13,2.35-1.48,3.36-2.92,3.58-5.76.12-1.55,2.34-2.94,3.61-4.4,1.38,1.43,3.57,2.67,3.94,4.33.51,2.25.64,3.88,3.25,4.79,2.74.96,5.37,2.98,3.86,6.4-1.61,3.64-4.37,2.28-7.14.97-4.08-1.92-8.85.04-8.37,3.51.27,1.97,2.67,4.71,4.58,5.18,5.53,1.36,9.64,4,10.98,9.58,1.35,5.67-.42,10.45-5.34,14.01-.94.68-1.42,2.47-1.5,3.78-.18,2.88-.69,5.73-4.05,5.83-3.93.12-4.12-3.06-4.07-6.05,0-.32-.14-.64-.23-1.01Z" fill="url(#linear-gradient-4)"/><path d="m119.13,65.14c5.44-5.62,10.28-10.6,15.1-15.61,2-2.09,4.19-3.7,6.76-1.11,2.61,2.62.82,4.81-1.18,6.8-5.64,5.63-11.37,11.19-16.91,16.92-2.73,2.82-5.05,2.53-7.61-.09-3.71-3.8-7.77-7.31-11.13-11.4-1.23-1.49-1.94-5.11-1.02-6.31,2.01-2.61,4.67-1.2,6.7,1,2.82,3.04,5.7,6.03,9.28,9.81Z" fill="url(#linear-gradient-5)"/></g></svg>