<?xml version="1.0" encoding="UTF-8"?><svg id="Layer_2" xmlns="http://www.w3.org/2000/svg" xmlns:xlink="http://www.w3.org/1999/xlink" viewBox="0 0 88.71 129.84"><defs><linearGradient id="linear-gradient" x1="15.96" y1="2.74" x2="73.85" y2="2.74" gradientTransform="translate(19.03 -13.86) rotate(69.63)" gradientUnits="userSpaceOnUse"><stop offset="0" stop-color="#6abd45"/><stop offset=".42" stop-color="#2d9b47"/><stop offset="1" stop-color="#000"/></linearGradient><linearGradient id="linear-gradient-2" x1="25.44" y1="3.22" x2="45.88" y2="3.22" xlink:href="#linear-gradient"/><linearGradient id="linear-gradient-3" x1="49.22" y1="-17.74" x2="64.54" y2="-17.74" xlink:href="#linear-gradient"/><linearGradient id="linear-gradient-4" x1=".06" y1="77.75" x2="88.71" y2="77.75" gradientTransform="matrix(1, 0, 0, 1, 0, 0)" xlink:href="#linear-gradient"/></defs><g id="Layer_1-2"><path d="m65.88,23.67c.41,1.99.94,3.97,1.21,5.99.81,6.02.06,11.86-2.29,17.47-.6,1.43-2.03,1.74-2.97.68-.64-.72-.39-1.47-.08-2.23,1.51-3.69,2.24-7.54,2.22-11.53-.06-18.9-17.07-33.38-35.53-30.23C15.89,5.97,5.9,16.13,3.86,28.82c-.68,4.2-.52,8.37.53,12.49.28,1.12-.16,1.94-1.17,2.22-1.03.29-1.8-.13-2.11-1.32-1.25-4.83-1.47-9.73-.49-14.63C2.71,17.09,8.47,9.21,17.79,3.93c.52-.29,1.04-.59,1.56-.88,1.71-.63,3.42-1.27,5.12-1.9.85-.16,1.7-.29,2.54-.47,12.75-2.73,27.06,3.06,34.26,13.94,1.29,1.94,2.34,4.04,3.5,6.07.37,1,.74,1.99,1.11,2.99Z" fill="url(#linear-gradient)"/><path d="m52.22,18.28c.31.96,0,1.61-.67,2.1-.68.5-1.38.43-1.98-.1-.65-.57-1.22-1.24-1.86-1.83-6.48-5.9-15.43-7.2-23.38-3.39-7.4,3.55-12.06,11.88-11.47,20.38.05.67-.14,1.61-.59,2.01-1.15,1.02-2.63.22-2.76-1.43-.38-4.6.4-9,2.49-13.12,3.28-6.48,8.45-10.84,15.47-12.58,9.44-2.35,17.58.28,24.27,7.35.2.22.37.47.48.62Z" fill="url(#linear-gradient-2)"/><path d="m57.08,27.01c1.14,4.27,1.26,8.49.26,12.75-.27,1.14-1.04,1.66-2.05,1.43-1.03-.24-1.52-1-1.26-2.16.84-3.81.77-7.58-.44-11.31-.26-.79-.32-1.69.55-2.1.55-.25,1.37-.35,1.88-.11.48.23.71.98,1.06,1.5Z" fill="url(#linear-gradient-3)"/><path d="m41.91,46.51c2.59,0,4.74-.32,6.74.09,2.22.45,5.1.95,6.28,2.51,2.06,2.73,4.46,2.65,7.15,2.55,4.01-.14,7.52.73,10.19,4.15.63.8,2.36,1,3.58,1.02,9.76.16,12.81,3.16,12.85,12.89.09,18.88-3.17,37.07-10.95,54.39-1.83,4.07-3.96,5.92-8.8,5.72-10.99-.47-22.01-.06-33.01-.24-1.57-.03-3.74-.89-4.58-2.1-9.39-13.63-18.6-27.38-27.78-41.15-1.22-1.83-2.18-3.89-2.93-5.97-1.4-3.9-.27-8.8,2.54-10.89,3.56-2.64,7.5-3.13,11.48-1.02,2.13,1.13,4.04,2.67,6.47,4.31,0-7.28,0-14.16,0-21.05,0-5.57-.02-11.14,0-16.71.03-6.12,3.58-9.33,10.3-9.35,6.79-.02,10.42,3.17,10.46,9.18.02,3.7,0,7.39,0,11.67Zm-15.59,35.98c-3.22.91-5.04.28-6.71-2.49-1.54-2.55-3.97-4.85-6.52-6.4-1.56-.95-4.74-1.09-6.02-.09-1.21.94-1.24,3.88-1.1,5.89.1,1.48,1.18,2.97,2.06,4.29,8.71,13.04,17.44,26.07,26.28,39.02.62.91,2.15,1.69,3.27,1.71,10.63.13,21.27.13,31.9-.01,1.04-.01,2.59-.96,3.03-1.89,8.32-17.53,11.4-36.12,10.92-55.4-.06-2.49-1.05-4.71-3.98-4.97-2.03-.18-4.09-.03-6.54-.03v15.31h-4.99c0-5.67-.09-11.1.04-16.52.06-2.53-1.17-3.73-3.42-3.92-2.27-.19-4.57-.04-7.12-.04v15.29h-5.09c0-5.67-.09-11.1.04-16.52.06-2.54-1.22-3.72-3.43-3.93-2.27-.21-4.57-.05-7.12-.05v20.5h-5.08v-4.27c0-10.76-.07-21.53.04-32.29.04-3.38-1.52-4.67-4.65-4.79-4.52-.17-5.8.97-5.81,5.44,0,15.33,0,30.66,0,46.17Z" fill="url(#linear-gradient-4)"/></g></svg>