<?xml version="1.0" encoding="UTF-8"?><svg id="Layer_2" xmlns="http://www.w3.org/2000/svg" xmlns:xlink="http://www.w3.org/1999/xlink" viewBox="0 0 480.13 440.02"><defs><linearGradient id="linear-gradient" x1="193.91" y1="184.95" x2="307.09" y2="380.98" gradientUnits="userSpaceOnUse"><stop offset="0" stop-color="#6abd45"/><stop offset=".42" stop-color="#2d9b47"/><stop offset="1" stop-color="#000"/></linearGradient><linearGradient id="linear-gradient-2" x1="225.4" y1="13.45" x2="324.88" y2="185.76" xlink:href="#linear-gradient"/><linearGradient id="linear-gradient-3" x1="62.11" y1="300.67" x2="87.46" y2="344.57" xlink:href="#linear-gradient"/><linearGradient id="linear-gradient-4" x1="70.83" y1="381.43" x2="80.18" y2="397.64" xlink:href="#linear-gradient"/><linearGradient id="linear-gradient-5" x1="220.66" y1="281.95" x2="229.99" y2="298.12" xlink:href="#linear-gradient"/><linearGradient id="linear-gradient-6" x1="246.07" y1="51.96" x2="300.86" y2="146.86" xlink:href="#linear-gradient"/></defs><g id="Layer_1-2"><path d="m94.59,264.14c8.92-11.93,18.85-22.61,31.02-31.07,20.87-14.51,43.72-21.64,69.18-18.15,10.99,1.51,21.78,4.53,32.78,6.01,10.53,1.42,21.19,2.25,31.81,2.46,19.49.38,39.01.43,58.5.01,16.45-.35,31.69,1.53,42.9,18.36,14.33-14.95,28.02-29.28,41.76-43.56,3.23-3.36,6.52-6.69,9.92-9.88,12-11.25,26.19-15.14,41.93-10.7,24.95,7.05,33.96,37.31,17.16,57.57-18.5,22.32-37.44,44.27-56.23,66.35-7.88,9.26-15.53,18.75-23.86,27.58-11.07,11.73-25.08,18.46-41.17,18.76-41.98.77-83.97.62-125.95,1.26-14.09.22-28.17,1.71-41.67,2.59,0,7.5,1.3,14.39-.36,20.48-1.72,6.28-5.38,12.63-9.82,17.46-14.43,15.7-29.56,30.76-44.5,45.98-5.7,5.81-10.43,5.78-16.42.15-4.74-4.45-9.47-8.91-14.13-13.44-4.99-4.84-5.64-10.38-1.82-14.52,3.93-4.25,9.67-3.87,14.94,1.04,2.8,2.61,5.56,5.27,8.34,7.9.1.09.32.05,1.76.26,1.53-1.78,3.46-4.28,5.64-6.53,11-11.39,22.09-22.69,33.1-34.07,7.35-7.59,7.41-16.04-.02-23.28-24.23-23.61-48.51-47.18-72.84-70.68-7.39-7.14-15.71-6.96-22.85.38-13.58,13.97-27.06,28.02-41.51,43,3.64,3.25,7.18,6.22,10.49,9.42,7.31,7.07,14.54,14.22,21.71,21.42,3.25,3.26,4.17,7.23,2.09,11.43-2.02,4.06-5.69,5.76-10,4.71-2.28-.55-4.57-2.08-6.28-3.75-12.17-11.87-24.23-23.85-36.25-35.88-5.19-5.19-5.25-9.95-.15-15.29,15.43-16.14,30.85-32.3,46.48-48.25,11.92-12.16,26.69-14.27,41.97-6.48.71.36,1.49.6,2.36.94Zm14.25,12.55c.77.94,1.13,1.49,1.6,1.94,18.82,18.17,37.61,36.37,56.57,54.39,1.25,1.18,3.83,1.51,5.72,1.38,18.25-1.29,36.48-3.66,54.74-4,38.15-.7,76.31-.3,114.47-.44,16.97-.06,30.73-6.48,41.67-19.86,16.55-20.24,33.78-39.92,50.69-59.86,7.86-9.27,16.05-18.31,23.36-28,8-10.6,1.7-25.58-10.96-27.18-8.21-1.04-15.43.98-21.47,6.99-18.77,18.69-37.68,37.25-56.38,56.01-1.7,1.71-3,4.45-3.28,6.85-2.07,17.93-17,32.24-35.02,33.03-5.82.26-11.66.15-17.49.15-16.33.01-32.66.06-48.99-.04-5.84-.04-9.54-3.4-9.85-8.45-.34-5.57,2.73-9.12,8.8-10.02,1.64-.24,3.32-.24,4.98-.24,15-.02,30,.01,44.99-.02,5.83-.01,11.68.15,17.48-.3,11.47-.9,19.15-12.48,15.82-23.42-2.66-8.73-9.49-13.45-19.84-13.47-23.16-.05-46.33-.12-69.49.02-16.22.1-32.18-1.6-47.87-5.8-13.83-3.7-27.9-5.12-41.95-1.88-25.17,5.79-43.46,21.36-58.32,42.23Z" fill="url(#linear-gradient)"/><path d="m374.62,99.6c.19,54.49-44.28,99.24-98.76,99.39-55.22.15-100.28-44.47-100.14-99.13C175.87,44.94,220.48,0,274.84,0c55.04,0,99.59,44.47,99.78,99.6Zm-99.49,80.6c44.39.14,80.86-36.14,80.9-80.48.04-44.31-36.31-80.72-80.68-80.83-44.51-.1-80.76,36.23-80.92,81.11-.16,43.75,36.38,80.06,80.7,80.2Z" fill="url(#linear-gradient-2)"/><path d="m74.65,347.99c-13.87-.06-25.42-11.7-25.3-25.5.11-13.83,11.85-25.45,25.6-25.35,13.84.11,25.36,11.78,25.3,25.63-.06,13.85-11.66,25.27-25.6,25.21Zm6.65-25.31c.03-3.67-2.95-6.7-6.56-6.67-3.5.03-6.68,3.26-6.42,6.82.28,3.79,2.29,6.12,6.3,6.24,3.85.11,6.65-2.6,6.69-6.38Z" fill="url(#linear-gradient-3)"/><path d="m75.76,380.18c5.04.08,9.55,4.78,9.32,9.72-.23,5.01-4.95,9.26-10.05,9.07-5.06-.19-8.96-4.35-8.88-9.46.09-5.33,4.29-9.42,9.6-9.33Z" fill="url(#linear-gradient-4)"/><path d="m234.64,289.47c.29,5.38-3.51,9.55-8.92,9.8-5.33.24-9.35-3.23-9.72-8.41-.4-5.53,3.14-9.59,8.67-9.95,5.67-.38,9.67,3.06,9.97,8.57Z" fill="url(#linear-gradient-5)"/><path d="m241.19,123.68c-.33-9.38,2.64-13.4,8.04-13.88,5.87-.52,9.21,2.6,10.28,9.54.3,1.97.52,4.02,1.25,5.84,1.84,4.61,4.4,9.18,9.86,9.51,6.23.38,12.4-.87,16.57-6.3,3.37-4.38,3.2-11.35-1.24-15.02-3.53-2.92-8.08-5.42-12.53-6.27-11.59-2.22-22.09-5.98-27.75-17.09-7.47-14.66-1.06-32.48,14.03-40.31,2.55-1.33,4.4-2.52,5.19-5.8.89-3.69,4-5.98,8.22-6.08,4.12-.1,6.75,1.92,8.9,5.3,1.19,1.88,2.93,3.82,4.89,4.74,12.16,5.71,19.01,16.74,16.31,28.27-.66,2.82-3.74,6.2-6.44,7.08-2.52.82-6.29-.86-8.95-2.41-1.46-.85-2.41-3.7-2.43-5.66-.06-5.41-2.26-8.84-7.52-10.27-5.47-1.49-9.93.6-13.37,4.5-5.76,6.52-3.37,14.78,4.92,17.38,3.3,1.04,6.84,1.3,10.23,2.07,24.44,5.54,37.62,31.59,21.48,51.91-3.52,4.43-9.59,6.79-14.38,10.25-1.69,1.22-3.51,2.62-4.49,4.38-1.95,3.5-4.43,5.75-8.55,5.83-4.1.08-6.83-1.87-8.75-5.45-.85-1.58-2.14-3.35-3.68-4.07-13.13-6.14-19.1-16.85-20.09-27.98Z" fill="url(#linear-gradient-6)"/></g></svg>