<?xml version="1.0" encoding="UTF-8"?><svg id="Layer_2" xmlns="http://www.w3.org/2000/svg" xmlns:xlink="http://www.w3.org/1999/xlink" viewBox="0 0 151.94 151.94"><defs><linearGradient id="linear-gradient" x1="37.99" y1="10.2" x2="113.99" y2="141.83" gradientUnits="userSpaceOnUse"><stop offset="0" stop-color="#6abd45"/><stop offset=".42" stop-color="#2d9b47"/><stop offset="1" stop-color="#000"/></linearGradient><linearGradient id="linear-gradient-2" x1="62.42" y1="25.32" x2="89.57" y2="72.35" xlink:href="#linear-gradient"/></defs><g id="Layer_1-2"><path d="m0,75.9C-.02,33.71,34,.01,76.63,0c41.19-.01,75.3,34.22,75.31,75.56,0,42.28-33.79,76.39-75.68,76.38C33.92,151.93.02,118.13,0,75.9Zm22.71,43.16c.23-.86.42-1.59.63-2.32,5.02-17.97,16.18-30.45,33.53-37.29,1.12-.44,2.8-.26,3.93.26,10.02,4.62,20.02,4.74,29.99.04,1.67-.79,3-.93,4.66-.24,17.33,7.14,28.48,19.68,33.25,37.84.14.55.41,1.06.66,1.68,21.25-25.57,21.46-66.65-6.12-92.84C95.55-.13,52.42.99,26.08,28.8.05,56.28,2.98,96.05,22.71,119.06Z" fill="url(#linear-gradient)"/><path d="m76.06,21.77c15.02.04,27.04,12.02,27.02,26.92-.03,15.25-12.05,27.31-27.19,27.28-15.12-.03-27.08-12.19-27.01-27.45.07-14.9,12.15-26.79,27.19-26.75Z" fill="url(#linear-gradient-2)"/></g></svg>