<svg width="1200" height="303" viewBox="0 0 1200 303" fill="none" xmlns="http://www.w3.org/2000/svg">
<g opacity="0.03" clip-path="url(#clip0_270_17027)">
<path d="M264.658 0.139648H240.675C218.31 0.139648 198.265 14.014 190.458 34.8956L92.0643 298.298H164.647L184.621 238.526H283.929L304.114 298.298H376.697L265.713 2.8024L264.729 0.139648H264.658ZM264.94 181.978H203.54L234.064 90.3229L264.94 181.978Z" fill="#25272D"/>
<path d="M437.604 106.159C446.114 93.9668 458.282 88.0106 474.669 88.0106C487.469 88.0106 497.597 91.0938 504.7 97.1201C511.874 103.146 516.516 112.956 518.696 126.27L519.189 129.213H576.228L575.806 125.289C572.641 97.6106 562.232 76.1684 544.93 61.5933C527.629 47.0183 503.505 39.6606 473.192 39.6606C451.389 39.6606 432.048 44.7059 415.731 54.5861C399.344 64.5364 386.684 79.0414 378.033 97.8208C369.453 116.39 365.092 138.533 365.092 163.759V180.717C365.303 205.312 370.015 227.034 379.088 245.253C388.231 263.682 401.383 277.977 418.192 287.647C434.931 297.317 454.695 302.222 476.849 302.222C497.738 302.222 517.079 299.069 534.31 292.902C551.752 286.596 565.467 277.627 575.103 266.135L575.947 265.154V161.096H470.66V205.872H517.501V243.782C509.835 250.649 497.105 254.082 479.662 254.082C462.22 254.082 448.083 247.986 438.729 235.513C429.305 222.83 424.522 203.7 424.522 178.474V162.568C424.663 137.552 429.094 118.562 437.815 106.089L437.604 106.159Z" fill="#25272D"/>
<path d="M786.379 166.142C794.116 154.3 797.984 139.375 797.984 121.787C797.984 96.9109 789.474 77.2906 772.665 63.5564C756.066 49.9623 732.365 43.0952 702.192 43.0952H651.905C626.515 43.0952 605.908 63.6264 605.908 88.9226V298.93H664.354V207.836H699.731L746.572 298.93H807.479V292.203L754.73 192.98C768.585 186.183 779.276 177.144 786.379 166.213V166.142ZM664.354 91.5854H702.192C714.993 91.5854 724.487 94.5985 730.466 100.625C736.514 106.721 739.468 114.99 739.468 125.851C739.468 136.712 736.374 144.49 729.973 150.376C723.573 156.262 714.289 159.275 702.333 159.275H664.354V91.5854Z" fill="#25272D"/>
<path d="M884 191.017H982.817V143.858H884V91.5141H999.626V43.0239H871.552C846.162 43.0239 825.555 63.5552 825.555 88.8513V298.858H999.977V250.719H884V191.087V191.017Z" fill="#25272D"/>
<path d="M1084.02 250.72V191.088H1182.84V143.929H1084.02V91.5854H1199.65V43.0952H1071.58C1046.19 43.0952 1025.58 63.6264 1025.58 88.9226V298.93H1200V250.79H1084.02V250.72Z" fill="#25272D"/>
<path d="M68.1514 298.369H-3.8147e-05V68.0411C-3.8147e-05 30.5523 30.5239 0.210938 68.1514 0.210938V298.369Z" fill="#25272D"/>
<path d="M0 108.332C0 70.8433 30.524 40.4318 68.1514 40.4318V0H0V108.332Z" fill="#11AE4B"/>
</g>
<defs>
<clipPath id="clip0_270_17027">
<rect width="1200" height="303" fill="white"/>
</clipPath>
</defs>
</svg>
