<svg width="51" height="50" viewBox="0 0 51 50" fill="none" xmlns="http://www.w3.org/2000/svg">
<g clip-path="url(#clip0_297_2957)">
<mask id="mask0_297_2957" style="mask-type:luminance" maskUnits="userSpaceOnUse" x="0" y="0" width="51" height="50">
<path d="M0.5 3.8147e-06H50.5V50H0.5V3.8147e-06Z" fill="white"/>
</mask>
<g mask="url(#mask0_297_2957)">
<path d="M17.3611 31.7654C18.355 30.9745 18.5155 29.5173 17.7238 28.5273C16.9293 27.5345 15.4705 27.374 14.4795 28.1649L10.8227 31.088C9.82889 31.8788 9.66844 33.339 10.46 34.3289C11.2517 35.319 12.7134 35.4821 13.7044 34.6885" stroke="#25272D" stroke-width="2" stroke-miterlimit="10" stroke-linecap="round" stroke-linejoin="round"/>
<path d="M16.5888 38.289C15.595 39.0826 15.4345 40.5401 16.2262 41.53C17.0179 42.5228 18.4794 42.6831 19.4705 41.8922L23.1273 38.9693C24.121 38.1783 24.2816 36.7183 23.4899 35.7282C22.6954 34.7383 21.2366 34.5751 20.2455 35.3688" stroke="#25272D" stroke-width="2" stroke-miterlimit="10" stroke-linecap="round" stroke-linejoin="round"/>
<path d="M19.4705 41.8922C18.4795 42.6831 18.3162 44.1433 19.1105 45.1332C19.9023 46.1231 21.3611 46.2863 22.3549 45.4927L24.4006 43.8556C25.3916 43.0647 25.555 41.6073 24.7632 40.6174C23.9688 39.6246 22.51 39.4643 21.5189 40.2551" stroke="#25272D" stroke-width="2" stroke-miterlimit="10" stroke-linecap="round" stroke-linejoin="round"/>
<path d="M34.6817 32.6004L37.2949 34.6883C38.2858 35.482 38.4492 36.9394 37.6575 37.9293C36.863 38.9193 35.4041 39.0825 34.4132 38.2888L31.5786 36.0268" stroke="#25272D" stroke-width="2" stroke-miterlimit="10" stroke-linecap="round" stroke-linejoin="round"/>
<path d="M31.5785 36.0269L34.4131 38.289C35.4041 39.0826 35.5675 40.54 34.7729 41.5301C33.9812 42.5227 32.5197 42.6831 31.5286 41.8923L28.6968 39.6274" stroke="#25272D" stroke-width="2" stroke-miterlimit="10" stroke-linecap="round" stroke-linejoin="round"/>
<path d="M28.6968 39.6274L30.1114 40.7584C31.1024 41.552 31.2658 43.0094 30.474 43.9995C29.6795 44.9922 28.2208 45.1526 27.2297 44.3617L25.1702 42.7163" stroke="#25272D" stroke-width="2" stroke-miterlimit="10" stroke-linecap="round" stroke-linejoin="round"/>
<path d="M47.6396 23.5026L49.3364 26.5002C49.7295 27.1971 49.4831 28.0958 48.7828 28.483L46.1669 29.9321C45.4665 30.3193 44.5751 30.0759 44.1821 29.3818L36.6415 16.0445C36.2457 15.3475 36.4921 14.4515 37.1924 14.0645L39.8111 12.6154C40.5114 12.2283 41.4 12.4689 41.7932 13.1657L43.3239 15.8702" stroke="#25272D" stroke-width="2" stroke-miterlimit="10" stroke-linecap="round" stroke-linejoin="round"/>
<path d="M39.9937 30.9385C40.6109 29.6057 41.9563 28.6184 43.501 28.1759" stroke="#25272D" stroke-width="2" stroke-miterlimit="10" stroke-linecap="round" stroke-linejoin="round"/>
<path d="M37.2949 34.6885C38.2859 35.4821 39.7475 35.319 40.5393 34.3289C41.3336 33.3391 41.1704 31.8788 40.1793 31.088L37.0098 28.5549C35.4706 27.3271 33.7323 25.9665 32.0825 24.7829C29.0983 22.6453 27.6284 21.2239 23.8886 21.9761C21.0622 22.5458 18.7757 21.6829 18.1806 19.2357C17.7986 17.6621 19.1383 16.9293 21.7931 16.6942L26.0284 16.3153C26.8644 16.2407 27.3626 16.1634 28.7162 16.6362L31.2713 17.5294C32.9987 18.1322 32.7661 18.2926 34.5626 17.7728L37.187 17.0123" stroke="#25272D" stroke-width="2" stroke-miterlimit="10" stroke-linecap="round" stroke-linejoin="round"/>
<path d="M13.8067 14.0642L11.1908 12.6151C10.4905 12.228 9.59908 12.4686 9.20602 13.1655L1.66549 26.5001C1.26959 27.197 1.51607 28.0957 2.21627 28.4828L4.83229 29.9318C5.53258 30.319 6.42398 30.0757 6.81705 29.3816L14.3577 16.0442C14.7534 15.3473 14.5071 14.4513 13.8067 14.0642Z" stroke="#25272D" stroke-width="2" stroke-miterlimit="10" stroke-linecap="round" stroke-linejoin="round"/>
<path d="M18.1886 18.2649L13.8176 16.9984" stroke="#25272D" stroke-width="2" stroke-miterlimit="10" stroke-linecap="round" stroke-linejoin="round"/>
<path d="M11.0081 30.9385C10.388 29.6057 9.04268 28.6184 7.49805 28.1759" stroke="#25272D" stroke-width="2" stroke-miterlimit="10" stroke-linecap="round" stroke-linejoin="round"/>
<path d="M25.4995 8.97876V4.00395" stroke="#09993E" stroke-width="2" stroke-miterlimit="10" stroke-linecap="round" stroke-linejoin="round"/>
<path d="M18.9833 11.0391L16.3811 6.91045" stroke="#09993E" stroke-width="2" stroke-miterlimit="10" stroke-linecap="round" stroke-linejoin="round"/>
<path d="M32.0186 11.0391L34.6179 6.91045" stroke="#09993E" stroke-width="2" stroke-miterlimit="10" stroke-linecap="round" stroke-linejoin="round"/>
<path d="M13.7043 34.6883L18.9722 30.4794C19.9632 29.6886 21.4248 29.8517 22.2165 30.8417C23.0082 31.8317 22.8477 33.2891 21.854 34.0828L16.5888 38.2888C15.5951 39.0825 14.1363 38.9193 13.3445 37.9293C12.55 36.9394 12.7134 35.482 13.7043 34.6883Z" stroke="#25272D" stroke-width="2" stroke-miterlimit="10" stroke-linecap="round" stroke-linejoin="round"/>
<path d="M45.4775 19.6892V19.6865" stroke="#25272D" stroke-width="2" stroke-miterlimit="10" stroke-linecap="round" stroke-linejoin="round"/>
</g>
</g>
<defs>
<clipPath id="clip0_297_2957">
<rect width="50" height="50" fill="white" transform="translate(0.5)"/>
</clipPath>
</defs>
</svg>
