<svg width="51" height="50" viewBox="0 0 51 50" fill="none" xmlns="http://www.w3.org/2000/svg">
<g clip-path="url(#clip0_297_2926)">
<path d="M25.4999 1.46484L27.7965 5.21367L32.0716 6.23945L29.2158 9.58203L29.5614 13.9648L25.4999 12.2818L21.4384 13.9648L21.784 9.58203L18.9282 6.23945L23.2033 5.21367L25.4999 1.46484Z" stroke="#09993E" stroke-width="2" stroke-miterlimit="10" stroke-linecap="round" stroke-linejoin="round"/>
<path d="M42.4634 7.22656L40.1668 10.9754L35.8918 12.0012L38.7475 15.3437L38.402 19.7266L42.4634 18.0436L46.525 19.7266L46.1794 15.3437L49.0351 12.0012L44.76 10.9754L42.4634 7.22656Z" stroke="#09993E" stroke-width="2" stroke-miterlimit="10" stroke-linecap="round" stroke-linejoin="round"/>
<path d="M8.53652 7.22656L10.8331 10.9754L15.1081 12.0012L12.2524 15.3437L12.5979 19.7266L8.53652 18.0436L4.475 19.7266L4.82051 15.3437L1.96484 12.0012L6.23994 10.9754L8.53652 7.22656Z" stroke="#09993E" stroke-width="2" stroke-miterlimit="10" stroke-linecap="round" stroke-linejoin="round"/>
<path d="M18.2734 45.6826H19.4668C20.7041 45.6826 21.8896 46.1738 22.7646 47.0488C23.2012 47.4863 23.7168 47.8271 24.2773 48.0595C24.8379 48.2909 25.4434 48.414 26.0615 48.414H35.7969C38.0303 48.414 39.9404 46.8085 40.3252 44.6083L41.8594 35.8202C42.2412 33.6386 40.5615 31.6406 38.3467 31.6406H30.8828L32.4541 26.749C32.5918 26.329 32.6572 25.9023 32.6572 25.4824C32.6572 23.7685 31.5654 22.1728 29.8477 21.6122C28.9102 21.3056 27.9023 21.8163 27.5957 22.7538L25.3711 29.6435C24.96 30.9033 23.9883 31.9023 22.7412 32.3495L18.2734 33.9501" stroke="#25272D" stroke-width="2" stroke-miterlimit="10" stroke-linecap="round" stroke-linejoin="round"/>
<path d="M18.2734 30.957H10.8516V48.5352H18.2734V30.957Z" stroke="#25272D" stroke-width="2" stroke-miterlimit="10" stroke-linecap="round" stroke-linejoin="round"/>
</g>
<defs>
<clipPath id="clip0_297_2926">
<rect width="50" height="50" fill="white" transform="translate(0.5)"/>
</clipPath>
</defs>
</svg>
